<?xml version="1.0" standalone="no"?>
<!DOCTYPE svg PUBLIC "-//W3C//DTD SVG 1.1//EN" "http://www.w3.org/Graphics/SVG/1.1/DTD/svg11.dtd" >
<svg xmlns="http://www.w3.org/2000/svg">
<metadata>
Created by FontForge 20120731 at Fri Apr 14 15:45:28 2017
 By admin
</metadata>
<defs>
<font id="iconfont" horiz-adv-x="1024" >
  <font-face 
    font-family="iconfont"
    font-weight="500"
    font-stretch="normal"
    units-per-em="1024"
    panose-1="2 0 6 3 0 0 0 0 0 0"
    ascent="896"
    descent="-128"
    x-height="792"
    bbox="-0.755555 -224 1205 896"
    underline-thickness="0"
    underline-position="0"
    unicode-range="U+0078-F02ED"
  />
<missing-glyph 
 />
    <glyph glyph-name=".notdef" 
 />
    <glyph glyph-name=".null" horiz-adv-x="0" 
 />
    <glyph glyph-name="nonmarkingreturn" horiz-adv-x="341" 
 />
    <glyph glyph-name="x" unicode="x" horiz-adv-x="1001" 
d="M281 543q-27 -1 -53 -1h-83q-18 0 -36.5 -6t-32.5 -18.5t-23 -32t-9 -45.5v-76h912v41q0 16 -0.5 30t-0.5 18q0 13 -5 29t-17 29.5t-31.5 22.5t-49.5 9h-133v-97h-438v97zM955 310v-52q0 -23 0.5 -52t0.5 -58t-10.5 -47.5t-26 -30t-33 -16t-31.5 -4.5q-14 -1 -29.5 -0.5
t-29.5 0.5h-32l-45 128h-439l-44 -128h-29h-34q-20 0 -45 1q-25 0 -41 9.5t-25.5 23t-13.5 29.5t-4 30v167h911zM163 247q-12 0 -21 -8.5t-9 -21.5t9 -21.5t21 -8.5q13 0 22 8.5t9 21.5t-9 21.5t-22 8.5zM316 123q-8 -26 -14 -48q-5 -19 -10.5 -37t-7.5 -25t-3 -15t1 -14.5
t9.5 -10.5t21.5 -4h37h67h81h80h64h36q23 0 34 12t2 38q-5 13 -9.5 30.5t-9.5 34.5q-5 19 -11 39h-368zM336 498v228q0 11 2.5 23t10 21.5t20.5 15.5t34 6h188q31 0 51.5 -14.5t20.5 -52.5v-227h-327z" />
    <glyph glyph-name="fenxiang" unicode="&#xe62e;" 
d="M797 207q-47 0 -85.5 -25t-57.5 -65l-268 53q-3 22 -12 43l179 193q31 -14 64 -14q66 0 113 47t47 112.5t-47 112.5t-112.5 47t-112.5 -47t-47 -113q0 -49 28 -89l-167 -181q-41 29 -91 29q-66 0 -113 -46.5t-47 -112.5t47 -112.5t113 -46.5q47 0 86 25.5t58 66.5
l267 -52q6 -61 51.5 -102t106.5 -41q66 0 112.5 46.5t46.5 112.5t-46.5 112.5t-112.5 46.5zM617.5 624q30.5 0 51.5 -21t21 -51.5t-21 -51.5t-51.5 -21t-51.5 21t-21 51.5t21 51.5t51.5 21zM228 79q-30 0 -51.5 21t-21.5 51t21.5 51.5t51.5 21.5t51 -21.5t21 -51.5t-21 -51
t-51 -21zM797 -25q-30 0 -51.5 21.5t-21.5 51.5t21.5 51t51.5 21t51.5 -21t21.5 -51t-21.5 -51.5t-51.5 -21.5z" />
    <glyph glyph-name="gouwuche" unicode="&#xe64a;" 
d="M793 245l110 252q8 20 -3 37t-31 17h-518l-9 37q-4 21 -23 36t-42 15h-132q-11 0 -18.5 -7.5t-7.5 -18.5t7.5 -18.5t18.5 -7.5h132q5 0 9 -3.5t5 -7.5l101 -448q-25 -10 -40 -32.5t-15 -49.5q0 -35 25.5 -60.5t61 -25.5t61 25.5t25.5 60.5q0 17 -6 32h178q-6 -15 -6 -32
q0 -35 25.5 -60.5t61 -25.5t61 25.5t25.5 61t-25.5 61t-61.5 25.5h-317l-19 82h320q15 0 28 8.5t19 21.5zM767 80q12 -2 20.5 -11.5t8.5 -22.5q0 -14 -10 -23.5t-23.5 -9.5t-23.5 9.5t-10 23.5q0 25 23 32zM363 498h482l-100 -230h-331zM423.5 13q-13.5 0 -23.5 9.5
t-10 23.5q0 13 8.5 22.5t20.5 11.5l15 -2q23 -7 23 -32q0 -14 -10 -23.5t-23.5 -9.5z" />
    <glyph glyph-name="fenlei" unicode="&#xf0048;" 
d="M931 -212h-290q-37 0 -65 38t-28 79v265q0 39 27 66.5t66 27.5h290q38 0 65.5 -27.5t27.5 -66.5v-288q0 -39 -27.5 -66.5t-65.5 -27.5zM976 167q0 20 -14 34t-34 14h-285q-20 0 -34 -14t-14 -34v-286q0 -19 14 -33t34 -14h285q20 0 34 14t14 33v286zM931 336h-290
q-37 0 -65 38t-28 79v265q0 39 27 66t66 27h290q38 0 65.5 -27t27.5 -66v-289q0 -39 -27.5 -66t-65.5 -27zM976 715q0 19 -14 33t-34 14h-285q-20 0 -34 -14t-14 -33v-286q0 -20 14 -34t34 -14h285q20 0 34 14t14 34v286zM383 -212h-290q-37 0 -65 38t-28 79v265
q0 39 27.5 66.5t65.5 27.5h290q39 0 66 -27.5t27 -66.5v-288q0 -39 -27 -66.5t-66 -27.5zM429 167q0 20 -14 34t-34 14h-286q-19 0 -33 -14t-14 -34v-286q0 -19 14 -33t33 -14h286q20 0 34 14t14 33v286zM383 336h-290q-37 0 -65 38t-28 79v265q0 39 27.5 66t65.5 27h290
q39 0 66 -27t27 -66v-289q0 -39 -27 -66t-66 -27zM429 715q0 19 -14 33t-34 14h-286q-19 0 -33 -14t-14 -33v-286q0 -20 14 -34t33 -14h286q20 0 34 14t14 34v286z" />
    <glyph glyph-name="shopcar" unicode="&#xe607;" 
d="M756.5 -30q-29.5 0 -50.5 21t-21 51q0 20 10 37h-259q10 -17 10 -37q0 -30 -21 -51t-51 -21t-51 21t-21 51q0 27 17 47q-17 13 -17 35q0 15 22 55q3 5 3 6l-71 332h-73q-19 0 -32 13t-13 31.5t13 31.5t32 13h109q39 0 48 -55h499q18 0 31 -13t13 -31v-219q0 -17 -11 -30
t-28 -15l-427 -49q2 -9 2 -15q0 -5 -1 -10h366q18 0 31.5 -13t13.5 -32q0 -22 -18 -35q18 -20 18 -47q0 -30 -21.5 -51t-51 -21zM756.5 79q-15.5 0 -26.5 -10.5t-11 -26t11 -26.5t26.5 -11t26.5 11t11 26.5t-11 26t-26.5 10.5zM374 79q-15 0 -26 -10.5t-11 -26t11 -26.5
t26 -11t26 11t11 26.5t-11 26t-26 10.5zM757 114h27q4 0 7 3t3 7t-3 7t-7 3h-421l15 30q6 11 6 15t-3 16q-2 7 -2 10l-4 19l464 54q9 1 9 10v219q0 4 -2.5 7t-6.5 3h-527l-3 13q-1 4 -2 11q-3 19 -6 24.5t-9 5.5h-109q-4 0 -7 -3t-3 -7t3 -7t7 -3h101l80 -371l-3 -5
q-1 -3 -7 -13q-17 -31 -17 -38q0 -4 3 -7t7 -3h410z" />
    <glyph glyph-name="fenlei1" unicode="&#xe60d;" 
d="M196 586q0 -9 -6.5 -16t-16.5 -7h-86q-9 0 -16 7t-7 16v86q0 10 7 16.5t16 6.5h86q10 0 16.5 -6.5t6.5 -16.5v-86zM959 586q0 -9 -6.5 -16t-16.5 -7h-625q-9 0 -16 7t-7 16v86q0 10 7 16.5t16 6.5h625q10 0 16.5 -6.5t6.5 -16.5v-86zM196 279q0 -9 -6.5 -16t-16.5 -7h-86
q-9 0 -16 7t-7 16v86q0 10 7 16.5t16 6.5h86q10 0 16.5 -6.5t6.5 -16.5v-86zM959 279q0 -9 -6.5 -16t-16.5 -7h-625q-9 0 -16 7t-7 16v86q0 10 7 16.5t16 6.5h625q10 0 16.5 -6.5t6.5 -16.5v-86zM196 -28q0 -9 -6.5 -16t-16.5 -7h-86q-9 0 -16 7t-7 16v86q0 10 7 16.5
t16 6.5h86q10 0 16.5 -6.5t6.5 -16.5v-86zM959 -28q0 -9 -6.5 -16t-16.5 -7h-625q-9 0 -16 7t-7 16v86q0 10 7 16.5t16 6.5h625q10 0 16.5 -6.5t6.5 -16.5v-86z" />
    <glyph glyph-name="shopping-cart" unicode="&#xe626;" 
d="M1024 605l-109 -354q-31 -50 -73 -50h-538l13 -75h574q14 0 19.5 -19t0 -37.5t-19.5 -18.5h-603q-3 0 -9.5 2.5t-19 15t-19.5 32.5l-108 624h-109q-15 0 -20.5 19t0 37.5t20.5 18.5h120q12 0 17.5 -0.5t16.5 -2t16.5 -7t6.5 -13.5l95 -501h547l106 299v0h-612
q-14 0 -20 19t0 37.5t20 18.5h651q4 0 12 -2.5t17 -14t8 -28.5zM336 -24q40 0 68 -29.5t28 -70.5t-28 -70.5t-68 -29.5t-68 29.5t-28 70.5t28 70.5t68 29.5zM336 -162q15 0 25.5 11t10.5 26.5t-10.5 26.5t-25.5 11t-25.5 -11t-10.5 -26.5t10.5 -26.5t25.5 -11zM746 -124
q0 41 28 70.5t68 29.5t68.5 -29.5t28.5 -70.5t-28.5 -70.5t-68.5 -29.5t-68 29.5t-28 70.5zM879 -124.5q0 15.5 -11 26.5t-26 11t-25.5 -11t-10.5 -26.5t10.5 -26.5t25.5 -11t26 11t11 26.5z" />
    <glyph glyph-name="gouwuche1" unicode="&#xe6ab;" 
d="M703 137h-2h-406h-2q-11 0 -21 -3v80h480q7 0 12 5l192 236q7 7 2.5 16t-13.5 9h-700h-1v113q0 11 -10 15l-150 57q-6 2 -11.5 -0.5t-8 -8.5t0 -11.5t8.5 -8.5l140 -53v-354q0 -6 4.5 -10.5t10.5 -4.5h14v-92q-22 -14 -35 -37t-13 -49q0 -42 29.5 -71.5t71.5 -29.5
t71.5 29.5t29.5 71.5q0 41 -29 70h261q-28 -29 -28 -70q0 -42 29.5 -71.5t71.5 -29.5t71.5 29.5t29.5 71.5q0 41 -29 70.5t-70 30.5zM244 449h1h667l-167 -205h-501v205zM295 -35q-29 0 -50 21t-21 50q0 28 20.5 48.5t48.5 21.5h2h4q28 -2 47 -22t19 -48q0 -29 -20.5 -50
t-49.5 -21zM701 -35q-29 0 -49.5 21t-20.5 50q0 28 19 48t47 22h4h2q28 -1 48 -21.5t20 -48.5q0 -29 -20.5 -50t-49.5 -21z" />
    <glyph glyph-name="zuojiantou" unicode="&#xe67a;" 
d="M744 719l-448 -447l-20 19l447 448zM723 -156l-447 448l20 20l448 -448z" />
    <glyph glyph-name="fenlei2" unicode="&#xe612;" 
d="M401 746h-257q-33 0 -56 -23t-23 -56v-257q0 -33 23 -56t56 -23h257q33 0 56 23t23 56v257q0 33 -23 56t-56 23zM441 410q0 -17 -12 -28.5t-28 -11.5h-257q-16 0 -28 11.5t-12 28.5v257q0 16 12 27.5t28 11.5h257q16 0 28 -11.5t12 -27.5v-257zM876 746h-257
q-33 0 -56 -23t-23 -56v-257q0 -33 23 -56t56 -23h257q32 0 55.5 23t23.5 56v257q0 33 -23.5 56t-55.5 23zM915 410q0 -17 -11.5 -28.5t-27.5 -11.5h-257q-17 0 -28.5 11.5t-11.5 28.5v257q0 16 11.5 27.5t28.5 11.5h257q16 0 27.5 -11.5t11.5 -27.5v-257zM401 271h-257
q-33 0 -56 -23t-23 -56v-257q0 -33 23 -56t56 -23h257q33 0 56 23t23 56v257q0 33 -23 56t-56 23zM441 -65q0 -16 -12 -27.5t-28 -11.5h-257q-16 0 -28 11.5t-12 27.5v257q0 17 12 28.5t28 11.5h257q16 0 28 -11.5t12 -28.5v-257zM876 271h-257q-33 0 -56 -23t-23 -56v-257
q0 -33 23 -56t56 -23h257q32 0 55.5 23t23.5 56v257q0 33 -23.5 56t-55.5 23zM915 -65q0 -16 -11.5 -27.5t-27.5 -11.5h-257q-17 0 -28.5 11.5t-11.5 27.5v257q0 17 11.5 28.5t28.5 11.5h257q16 0 27.5 -11.5t11.5 -28.5v-257z" />
    <glyph glyph-name="zuojiantou1" unicode="&#xe604;" 
d="M342 300l399 399q9 9 9 20.5t-8.5 20t-20.5 8.5t-20 -8l-414 -415q-1 0 -3.5 -1t-3.5 -2q-9 -9 -8 -22q-1 -13 8 -22q1 -1 3.5 -1.5t3.5 -1.5l414 -414q8 -8 20 -8t20.5 8t8.5 20t-9 20z" />
    <glyph glyph-name="dingdan" unicode="&#xe622;" 
d="M844 752h-61q-13 0 -24 -7.5t-11 -19.5t11.5 -22.5t23.5 -10.5h61q26 0 43 -17t17 -43v-693q0 -27 -17 -43.5t-43 -16.5h-648q-29 0 -52.5 17t-23.5 43v693q0 26 17 43t43 17h76q23 0 23 33q0 27 -23 27h-76q-60 0 -90 -33.5t-30 -88.5v-685q0 -57 33.5 -91.5t93.5 -34.5
h650q62 0 94.5 32t32.5 94v685q0 54 -32 88t-88 34zM256 480.5q0 -12.5 9 -21.5t22 -9h452q12 0 21 9t9 21.5t-9 21.5t-21 9h-452q-13 0 -22 -9t-9 -21.5zM737 345h-450q-13 0 -22 -9t-9 -21.5t9 -22t22 -9.5h452q12 0 21 9.5t9 21.5q-1 13 -10 22t-22 9zM737 164h-450
q-13 0 -22 -9t-9 -21.5t9 -21.5t22 -9h452q12 0 21 9t9 22q-1 13 -10 21.5t-22 8.5zM408 676h210q18 0 31.5 16t13.5 37t-13.5 36.5t-32.5 15.5h-209q-19 0 -32.5 -15.5t-13.5 -36.5t13.5 -37t32.5 -16z" />
    <glyph glyph-name="shoucang" unicode="&#xe623;" 
d="M1003 411q-12 37 -69 55h-2l-208 52q-33 46 -135 187l-1 1q-33 43 -76 43t-75 -45l-116 -171q-71 -20 -155 -43l-76 -21q-53 -16 -66 -50q-14 -36 19 -86l2 -2q88 -101 136 -156q-2 -78 -7 -226q-5 -54 18 -78q17 -19 47 -19q23 0 59 12l200 74q107 -36 228 -77
q22 -6 41 -6q12 0 23.5 3t24.5 12t21.5 28t9.5 47v3q-4 62 -12 201v1l147 180q34 45 22 81zM944 357l-152 -186q-6 -7 -5 -15v-10q2 -22 6 -92t7 -108q-1 -16 -4.5 -26.5t-9.5 -14t-9.5 -4.5t-9.5 -1q-12 0 -27 4q-161 55 -235 79q-8 3 -16 0l-207 -76q-28 -10 -43 -10
q-9 0 -13 4q-9 10 -6 44l1 1q3 105 7 236q0 8 -5 15q-51 58 -141 162q-20 30 -15 44q6 14 36 23l76 21q127 35 163 45q9 2 14 9l120 178q17 25 36 25t39 -25q133 -184 140 -194q5 -7 13 -9l216 -53q34 -11 39 -26q5 -14 -15 -40v0z" />
    <glyph glyph-name="arrowleft" unicode="&#xe603;" 
d="M359 288l383 384h-76l-384 -384l384 -383h76z" />
    <glyph glyph-name="new" unicode="&#xe613;" 
d="M512 -224q-104 0 -199 40.5t-163.5 109t-109 163.5t-40.5 199t40.5 199t109 163.5t163.5 109t199 40.5t199 -40.5t163.5 -109t109 -163.5t40.5 -199t-40.5 -199t-109 -163.5t-163.5 -109t-199 -40.5zM310 436h-60v-196h-1l-122 196h-64v-292h60v196h1l122 -196h64v292z
M569 436h-219v-292h222v54h-158v72h142v50h-142v62h155v54zM845 235h-1l-50 201h-60l-51 -199v0l-47 199h-64l77 -292h66l48 199h1l50 -199h64l78 292h-63z" />
    <glyph glyph-name="fenlei3" unicode="&#xe633;" 
d="M865 -146h-220q-41 0 -70 29.5t-29 70.5v222q0 42 29 71t70 29h220q41 0 70.5 -29t29.5 -71v-222q0 -41 -29.5 -70.5t-70.5 -29.5zM645 240q-26 0 -44.5 -18.5t-18.5 -45.5v-222q0 -26 18.5 -45t44.5 -19h220q26 0 44.5 19t18.5 45v222q0 27 -18.5 45.5t-44.5 18.5h-220z
M389 -146h-220q-41 0 -70.5 29.5t-29.5 70.5v222q0 42 29.5 71t70.5 29h220q41 0 70.5 -29t29.5 -71v-222q0 -41 -29.5 -70.5t-70.5 -29.5zM169 240q-26 0 -44.5 -18.5t-18.5 -45.5v-222q0 -26 18.5 -45t44.5 -19h220q26 0 44.5 19t18.5 45v222q0 27 -18.5 45.5t-44.5 18.5
h-220zM389 330h-220q-41 0 -70.5 29t-29.5 71v222q0 41 29.5 70.5t70.5 29.5h220q41 0 70.5 -29.5t29.5 -70.5v-222q0 -42 -29.5 -71t-70.5 -29zM169 716q-26 0 -44.5 -19t-18.5 -45v-222q0 -27 18.5 -45.5t44.5 -18.5h220q26 0 44.5 18.5t18.5 45.5v222q0 26 -18.5 45
t-44.5 19h-220zM860 339h-209q-40 0 -68 28t-28 68v211q0 40 28 68.5t68 28.5h209q39 0 67.5 -28.5t28.5 -68.5v-211q0 -40 -28 -68t-68 -28zM651 706q-25 0 -42.5 -17.5t-17.5 -42.5v-211q0 -25 17.5 -42.5t42.5 -17.5h209q24 0 41.5 17.5t17.5 42.5v211q0 25 -17.5 42.5
t-41.5 17.5h-209z" />
    <glyph glyph-name="tishilian" unicode="&#xe65c;" 
d="M485.5 -212q-97.5 0 -186 38t-152.5 102t-102 153t-38 186t38 185.5t102 153t152.5 102.5t186 38t186 -38t153 -102.5t102.5 -153t38 -185.5t-38 -186t-102.5 -153t-153 -102t-186 -38zM486 715q-91 0 -174 -35.5t-143 -95.5t-95.5 -143t-35.5 -174t35.5 -174t95.5 -143
t143 -95.5t174 -35.5t174 35.5t143 95.5t95.5 143t35.5 174t-35.5 174t-95.5 143t-143 95.5t-174 35.5zM352 363.5q0 -22.5 -16 -39t-39 -16.5t-39 16.5t-16 39t16 39t39 16.5t39 -16.5t16 -39zM674.5 419q-22.5 0 -39 -16.5t-16.5 -39t16.5 -39t39 -16.5t39 16.5t16.5 39
t-16.5 39t-39 16.5zM562 81.5q0 -44.5 -22.5 -76.5t-54 -32t-54 32t-22.5 76.5t22.5 76t54 31.5t54 -31.5t22.5 -76zM836 710q13 57 42 86q22 20 46.5 15t31.5 -24q7 -20 -1 -36t-28 -20q-16 -4 -27.5 -1.5t-29 -1.5t-34.5 -18zM917 674q4 2 10.5 5.5t24 8.5t30.5 5
q20 -1 30 -16.5t3 -28.5t-19 -16.5t-25 4.5q-5 4 -12 13t-16.5 15.5t-25.5 9.5z" />
    <glyph glyph-name="fenlei4" unicode="&#xe617;" 
d="M953 742h-884q-28 0 -48.5 -20.5t-20.5 -49.5v0q0 -29 20.5 -49t48.5 -20h884q28 0 48.5 20t20.5 49v0q0 29 -20.5 49.5t-48.5 20.5zM952 372h-882q-29 0 -49.5 -20.5t-20.5 -49.5v0q0 -29 20.5 -49.5t49.5 -20.5h882q29 0 49.5 20.5t20.5 49.5v0q0 29 -20.5 49.5
t-49.5 20.5zM953 1h-884q-28 0 -48.5 -20.5t-20.5 -48.5v-1q0 -29 20.5 -49t48.5 -20h884q28 0 48.5 20t20.5 49v1q0 28 -20.5 48.5t-48.5 20.5z" />
    <glyph glyph-name="youhuiquan" unicode="&#xe625;" 
d="M935 484q17 11 21 21t4 28v150q0 30 -22 52t-53 22h-746q-31 0 -53 -22t-22 -52v-150q0 -19 4.5 -30t20.5 -19q31 -15 53 -40t22 -60q0 -75 -73 -99q-27 -17 -27 -50v-150q0 -30 22 -52t53 -22h746q31 0 53 22t22 52v150q0 19 -5 28.5t-20 20.5q-41 22 -58 43.5t-17 56
t16.5 56t58.5 44.5zM910 244v-134q0 -20 -14.5 -34.5t-35.5 -14.5h-696q-21 0 -35.5 14.5t-14.5 34.5v134q44 16 71.5 54t27.5 86t-27.5 86t-71.5 54v134q0 20 14.5 34.5t35.5 14.5h696q21 0 35.5 -14.5t14.5 -34.5v-134q-44 -16 -71.5 -54t-27.5 -86t27.5 -86t71.5 -54z
M649 434h-94l102 109q8 9 0 18l-16 17q-8 9 -16 0l-113 -121l-113 121q-8 9 -16 0l-16 -17q-8 -9 0 -17l102 -110h-94q-5 0 -8.5 -4t-3.5 -9v-25q0 -5 3.5 -8.5t8.5 -3.5h112v-50h-112q-5 0 -8.5 -3.5t-3.5 -8.5v-25q0 -5 3.5 -9t8.5 -4h112v-87q0 -5 3.5 -8.5t9.5 -3.5h24
q6 0 9.5 3.5t3.5 8.5v87h112q5 0 8.5 4t3.5 9v25q0 5 -3.5 8.5t-8.5 3.5h-112v50h112q5 0 8.5 3.5t3.5 8.5v25q0 5 -3.5 9t-8.5 4z" />
    <glyph glyph-name="wode" unicode="&#xe618;" 
d="M956 -111q2 -7 2 -13q0 -18 -13 -31t-31.5 -13t-31.5 13t-13 31v0h-1q-9 141 -111.5 238t-244.5 97t-244.5 -97t-111.5 -238h-1v0q0 -18 -13 -31t-31.5 -13t-31.5 13t-13 31q0 6 2 12q9 126 82.5 227t186.5 150q-53 38 -84 97t-31 128q0 115 82 196.5t197 81.5t197 -81.5
t82 -196.5q0 -66 -29 -123.5t-79 -96.5q119 -46 196.5 -148.5t87.5 -232.5zM690 489.5q0 78.5 -55.5 134t-134 55.5t-134 -55.5t-55.5 -134t55.5 -134t134 -55.5t134 55.5t55.5 134z" />
    <glyph glyph-name="iconfontarrleft" unicode="&#xe601;" 
d="M605.5 648q8.5 0 14.5 -6t6 -14.5t-6 -14.5l-337 -337l337 -336q6 -6 6 -14.5t-6 -14.5t-14.5 -6t-14.5 6l-351 351q-6 6 -6 14.5t6 14.5l351 351q6 6 14.5 6z" />
    <glyph glyph-name="feilei" unicode="&#xe600;" horiz-adv-x="1166" 
d="M373 677h746q19 0 32.5 13t13.5 31.5t-13.5 32t-32.5 13.5h-746q-19 0 -33 -13.5t-14 -32t14 -31.5t33 -13v0zM1119 345h-746q-19 0 -33 -13t-14 -32t14 -32t33 -13h746q19 0 32.5 13t13.5 32t-13.5 32t-32.5 13v0zM1119 -77h-746q-19 0 -33 -13t-14 -31.5t14 -32
t33 -13.5h746q19 0 32.5 13.5t13.5 32t-13.5 31.5t-32.5 13v0zM0 722q0 37 27.5 63.5t66 26.5t65.5 -26.5t27 -64t-27 -63.5t-65.5 -26t-66 26t-27.5 64v0zM0 300q0 37 27.5 63.5t66 26.5t65.5 -26.5t27 -63.5t-27 -63.5t-65.5 -26.5t-66 26.5t-27.5 63.5v0zM0 -122
q0 38 27.5 64t66 26t65.5 -26t27 -63.5t-27 -64t-65.5 -26.5t-66 26.5t-27.5 63.5v0z" />
    <glyph glyph-name="icongouwuche" unicode="&#xe621;" 
d="M331 -65q-30 0 -51.5 -21.5t-21.5 -51.5t21.5 -51.5t51.5 -21.5t51.5 21.5t21.5 51.5t-21.5 51.5t-51.5 21.5v0v0v0zM841 -65q-31 0 -52 -21.5t-21 -51.5t21 -51.5t51.5 -21.5t51.5 21.5t21 51.5t-21 51.5t-51 21.5v0v0v0zM913 -29h-592q-39 0 -69.5 27.5t-35.5 67.5
l-62 434l-35 204q-1 13 -11.5 22.5t-22.5 9.5h-46q-15 0 -26 10.5t-11 25.5t11 26t26 11h46q40 0 71 -27.5t35 -67.5l35 -202l62 -437q2 -13 12 -22t21 -9h592q15 0 25.5 -10.5t10.5 -26t-10.5 -26t-25.5 -10.5v0v0zM367 117q-14 0 -24.5 9.5t-11.5 24.5q-2 15 8 26t25 13
l494 36q14 0 24 9t12 21l57 329q2 20 -9 34q-7 8 -18 8h-630q-15 0 -26 10.5t-11 25.5t11 25.5t26 10.5h630q43 0 72 -32q34 -38 27 -93l-57 -328q-5 -39 -35.5 -66t-69.5 -27l-492 -36h-2v0v0zM367 117z" />
    <glyph glyph-name="daifukuan" unicode="&#xe660;" 
d="M846 689h-668q-46 0 -78.5 -32.5t-32.5 -78.5v-556q0 -46 32.5 -78.5t78.5 -32.5h668q46 0 78.5 32.5t32.5 78.5v83v390v83q0 46 -32.5 78.5t-78.5 32.5zM901 161h-278q-23 0 -39 16t-16 40v166q0 23 16 39.5t39 16.5h278v-278zM623 495q-46 0 -78.5 -33t-32.5 -79v-166
q0 -46 32.5 -79t78.5 -33h278v-111q0 -11 -8 -19.5t-19 -8.5h-724q-11 0 -19 8.5t-8 19.5v612q0 11 8 19.5t19 8.5h724q11 0 19 -8.5t8 -19.5v-111h-278zM762.5 217q34.5 0 59 24t24.5 59t-24.5 59t-59 24t-59 -24t-24.5 -59t24.5 -59t59 -24zM762.5 328q11.5 0 19.5 -8
t8 -20t-8 -20t-19.5 -8t-20 8t-8.5 20t8.5 20t20 8z" />
    <glyph glyph-name="fenxiang1" unicode="&#xe696;" horiz-adv-x="1127" 
d="M283 322q-2 2 -3.5 4t-1.5 5q2 -4 5 -9v0zM841 3q-1 0 -1.5 -1t-1.5 -2q1 2 3 3v0zM956 125q-47 0 -86.5 -23.5t-62.5 -62.5l-472 186q6 21 6 43q0 31 -11 60l402 215q24 -32 60 -50t77 -18q70 0 120 49.5t50 119t-50 119t-120.5 49.5t-120.5 -49.5t-50 -119.5
q0 -32 12 -61l-402 -215q-23 33 -59.5 51.5t-77.5 18.5q-71 0 -121 -49.5t-50 -119.5t50 -119t121 -49q46 0 85 22.5t62 60.5l472 -186q-5 -20 -5 -40q0 -70 50 -119.5t120.5 -49.5t120.5 49.5t50 119t-50 119t-120 49.5v0zM868 766q51 0 87.5 -36t36.5 -87t-36.5 -87.5
t-88 -36.5t-88 36.5t-36.5 87.5t36.5 87t88.5 36v0zM170 144q-51 0 -87.5 36.5t-36.5 87.5t36.5 87t87.5 36q34 0 62.5 -16.5t45.5 -43.5q2 -4 5 -9q12 -26 12 -54q0 -51 -36.5 -87.5t-88.5 -36.5v0zM955 -167q-52 0 -88.5 36t-36.5 87q0 23 8 44v0q1 2 1 3v0q15 35 46 56
t70 21q51 0 88 -36.5t37 -87.5t-37 -87t-88 -36v0z" />
    <glyph glyph-name="daifukuan1" unicode="&#xe662;" 
d="M785 130q0 -23 -0.5 -36t-3 -34.5t-8.5 -34t-16 -26t-27 -20t-39 -6.5h-143h-334q-29 0 -48.5 12t-28 34.5t-11.5 43t-3 48.5v203v191q0 52 21.5 87t71.5 35h340h135q26 0 44.5 -10t28 -23.5t14.5 -36t6 -39.5t1 -42q0 -17 14 -24t27.5 0t13.5 24q0 35 -1.5 56.5
t-8.5 48.5t-23.5 47t-42.5 36q-11 7 -23.5 11t-28.5 5.5t-25.5 2t-29.5 0t-26 -0.5h-391q-98 0 -148 -66q-8 -11 -13.5 -23.5t-7.5 -31t-3 -25t-0.5 -33l0.5 -26.5v-391q0 -71 40 -119.5t110 -48.5h241h233q41 0 75 20t55 56q7 11 11.5 24t6 29t1.5 26.5t-0.5 30t-0.5 26.5
q0 17 -13.5 24t-27.5 0t-14 -24zM952 340q0 75 -106 75h-335q-16 0 -28 -4.5t-19.5 -10.5t-13 -18.5t-8.5 -20.5t-4.5 -25t-1.5 -24v-26v-23q0 -78 107 -78h335q5 0 9 1q16 2 28 8t19 17.5t11.5 20.5t6 26.5t1.5 26.5t-0.5 29t-0.5 26zM518 240q-26 0 -26 35q0 3 -1.5 23.5
t-0.5 34t7 21.5q6 7 24 8.5t43 -0.5t26 -2h168h116q4 0 7.5 -1t5.5 -3t4 -3t3 -5t2 -5.5t1 -6.5v-6v-6.5v-6.5q0 -5 1 -17t0.5 -19.5t-2 -17t-6.5 -15.5t-14 -8h-245h-113zM815 298zM788 298.5q0 11.5 8 19.5t19.5 8t19.5 -8t8 -19.5t-8 -20t-19.5 -8.5t-19.5 8.5t-8 20z
" />
    <glyph glyph-name="listcategory" unicode="&#xe685;" 
d="M986 671h-948q-16 0 -27 11.5t-11 27t11 27t27 11.5h948q16 0 27 -11.5t11 -27t-11 -27t-27 -11.5zM986 262h-948q-15 0 -26.5 11t-11.5 27t11 27t27 11h948q16 0 27 -11t11 -27t-11 -27t-27 -11zM986 -148h-948q-16 0 -27 11.5t-11 27t11 27t27 11.5h948q16 0 27 -11.5
t11 -27t-11 -27t-27 -11.5z" />
    <glyph glyph-name="daifukuan2" unicode="&#xe7c8;" 
d="M816 701h-608q-60 0 -102.5 -42t-42.5 -101v-516q0 -59 42.5 -101t102.5 -42h608q60 0 102.5 42t42.5 101v516q0 59 -42.5 101t-102.5 42zM915 225h-306q-24 0 -40.5 16.5t-16.5 39.5v38q0 23 16.5 39.5t40.5 16.5h306v-150zM915 420h-306q-43 0 -73 -29.5t-30 -71.5v-38
q0 -42 30 -72t73 -30h306v-137q0 -40 -29 -68.5t-70 -28.5h-608q-41 0 -70 28.5t-29 68.5v516q0 40 29 68.5t70 28.5h608q41 0 70 -28.5t29 -68.5v-138zM597 299.5q0 -15.5 11 -26t27 -10.5t27 10.5t11 26t-11 26.5t-27 11t-27 -11t-11 -26.5z" />
    <glyph glyph-name="huiyuanzhongxin" unicode="&#xe608;" 
d="M111 451l3 7q11 33 45 35q14 1 27.5 -6.5t20.5 -21.5q15 -29 -7 -55l-5 -5q105 -65 112 -69q35 -21 42 -25q12 -8 18 4q25 45 128 233q-30 16 -31 46q-1 22 15 38q16 15 38 14t36 -18q16 -20 10.5 -41.5t-30.5 -38.5q32 -59 33 -60q54 -100 92 -169q6 -10 10.5 -11
t14.5 5q62 37 143 87l7 5q-16 16 -17 35t11 34t30 18q20 3 36 -6.5t22 -28.5l2 -6v-17q-13 -41 -54 -42q-3 -8 -3 -9q-19 -67 -84 -287q-2 -10 -6.5 -13t-13.5 -3h-483q-10 0 -14.5 3t-6.5 13q-48 162 -68 233q-1 3 -19 63q-33 0 -48 27q0 1 -6 15v17zM514 29h226
q15 0 25.5 -9.5t12.5 -23.5t-6.5 -26t-23.5 -15q-3 -1 -8 -1h-452q-28 0 -36 26q-4 11 -0.5 23t13.5 18q12 8 25 8h224v0z" />
    <glyph glyph-name="new1" unicode="&#xe60a;" 
d="M182 412h-33v-250h31v196l129 -196h33v250h-31v-196zM560 383v29h-177v-250h183v30h-150v85h135v29h-135v77h144zM857 412l-38 -161q-8 -30 -12 -54q-6 42 -19 89l-35 126h-39l-47 -169q-2 -6 -11 -46q-4 26 -10 51l-38 164h-33l65 -250h33l52 191q3 12 7 29q1 -6 8 -29
l52 -191h31l67 250h-33zM957 487q-37 88 -104.5 155t-154.5 104q-90 38 -189 38t-189 -38q-87 -37 -154.5 -104t-104.5 -155q-38 -90 -38 -189t38 -189q37 -87 104.5 -154.5t154.5 -104.5q90 -38 189 -38q154 0 279 89q10 6 12 18t-4.5 22t-18.5 12t-22 -5
q-110 -78 -246 -78q-116 0 -214.5 57.5t-156 156t-57.5 214.5t57.5 214.5t156 156t214.5 57.5t214.5 -57.5t156 -156t57.5 -214.5q0 -151 -95 -268q-7 -10 -6 -22t10.5 -19.5t21.5 -6t19 10.5q52 64 79 141q29 79 29 164q0 99 -38 189z" />
    <glyph glyph-name="huijijiayuanshoucangicon01" unicode="&#xe645;" horiz-adv-x="1025" 
d="M917 400.5q-11 33.5 -47 38.5l-212 32l-93 191q-16 33 -53 33t-53 -33l-93 -191l-212 -32q-35 -5 -46.5 -38.5t13.5 -58.5l155 -155l-36 -216q-6 -35 24 -56q16 -10 34 -10q15 0 29 7l185 96l185 -96q14 -7 29 -7q18 0 34 10q30 21 24 56l-36 216l155 155q25 25 14 58.5z
M690 205l41 -249l-219 113l-219 -113l41 249l-179 179l248 36l109 224l109 -224l248 -36z" />
    <glyph glyph-name="htmal5icon31" unicode="&#xe643;" 
d="M514 766q-113 0 -202 -70.5t-121 -179.5q-28 -17 -43.5 -47.5t-15.5 -68.5q0 -56 32 -94t86 -38q12 0 20.5 8.5t8.5 20.5v206q0 21 -22 27q33 80 102.5 129.5t154.5 49.5t154.5 -49.5t101.5 -129.5q-22 -6 -22 -27v-206q0 -12 9 -20.5t21 -8.5q7 0 19 2q-12 -71 -56 -124
q-19 -23 -41 -38q-7 -6 -14 -9q-1 0 -2 -0.5t-2 -1.5h-55q-8 24 -31 39t-53 15q-36 0 -62 -21.5t-26 -52t26 -52t62 -21.5q30 0 53 15t31 38h58q7 0 19 6q10 5 20 12q27 19 49 45q58 70 67 167q55 37 55 113q0 38 -15.5 68.5t-43.5 47.5q-31 109 -120 179.5t-202 70.5z" />
    <glyph glyph-name="dingdan1" unicode="&#xe619;" 
d="M817 792h-56q-13 0 -23 -7t-10 -18q0 -12 10.5 -21.5t22.5 -9.5h56q25 0 40.5 -15.5t15.5 -40.5v-643q0 -25 -15.5 -40.5t-40.5 -15.5h-602q-26 0 -48 16t-22 40v643q0 25 15.5 40.5t40.5 15.5h70q22 0 22 31q0 25 -22 25h-70q-56 0 -84 -31t-28 -82v-636q0 -53 31 -85.5
t87 -32.5h604q57 0 87.5 30t30.5 88v636q0 50 -29.5 81.5t-82.5 31.5v0zM271 540q0 -12 8.5 -20.5t20.5 -8.5h419q12 0 20.5 8.5t8.5 20t-8.5 20t-20.5 8.5h-419q-12 0 -20.5 -8.5t-8.5 -19.5v0zM718 414h-418q-12 0 -20.5 -8.5t-8.5 -20t8.5 -20t20.5 -8.5h419
q12 0 20.5 8.5t8.5 19.5q-1 13 -9.5 21t-20.5 8v0zM718 246h-418q-12 0 -20.5 -8.5t-8.5 -20t8.5 -20t20.5 -8.5h419q12 0 20.5 8.5t8.5 20.5q-1 12 -9.5 20t-20.5 8v0zM413 722h195q16 0 28.5 14.5t12.5 34t-12.5 34t-30.5 14.5h-193q-18 0 -30.5 -14.5t-12.5 -34t12.5 -34
t30.5 -14.5v0z" />
    <glyph glyph-name="feedback" unicode="&#xe6dd;" 
d="M870 767h-716q-37 0 -63 -25t-26 -60v-468q0 -36 26 -61t63 -25h45v-127l168 127h503q37 0 63 25t26 61v468q0 35 -26 60t-63 25v0zM780 299h-536v42h536v-42v0zM780 427h-536v42h536v-42v0zM780 554h-536v43h536v-43v0zM780 554z" />
    <glyph glyph-name="yooxi" unicode="&#xe631;" 
d="M513 -99q-100 0 -191 39q-88 37 -156 105t-105 157q-39 91 -39 191t39 191q37 88 105 156t156 106q91 38 191 38t192 -38q88 -38 156 -106t105 -156q39 -91 39 -191t-39 -191q-37 -89 -105 -157t-156 -105q-92 -39 -192 -39zM513.5 848q-92.5 0 -177 -36t-145.5 -97
t-97 -145.5t-36 -177t36 -176.5t97 -145t145.5 -97.5t177 -36.5t177 36.5t145.5 97.5t97 145t36 176.5t-36 177t-97 145.5t-145.5 97t-177 36zM114 259l3 32l6 112l2 45v24h43h37l67 -121l9 -18q2 26 4 73.5t2 65.5h30h31l-4 -47l-7 -129l-1 -37h-38h-40q-9 15 -12 22
l-27 44q-13 22 -24 42q-7 13 -14 28l-4 -74l-1 -62h-30h-32zM376 259q4 40 6 67t4 72t2 60l-1 14h90h85v-5q-1 -2 -1 -14l-1 -17q-1 -5 -1 -11q-30 1 -50 1h-30.5h-24.5l-2 -36q18 -1 43 -1q9 0 47 1q-2 -20 -3 -47h-42q-22 0 -48 -1l-2 -38h18h33l32 1q7 0 24 1
q-2 -23 -3 -47h-84h-68h-23zM630 259l-6 28q-2 11 -5 29l-26 117l-9 39h32h32q4 -26 6 -37l14 -63q4 -21 9 -50l5 22l18 72l13 56h36h36l10 -66l14 -84l6 23l4 12t8 25l19 60l8 30h32h31l-61 -182l-9 -31h-41h-41l-4 21l-14 75q-1 6 -1.5 13t-2.5 22l-5 -24q-2 -8 -5 -16
l-25 -91h-39h-39z" />
    <glyph glyph-name="youhuiquan1" unicode="&#xe624;" horiz-adv-x="1026" 
d="M414 516l31 26q-4 5 -9.5 10.5t-14.5 14t-15 14.5l-23 26l-26 -24q6 -5 29.5 -34.5t27.5 -32.5zM757 401v27h-264q0 1 25 59h214v29h-98q1 2 29.5 28t40.5 41l-33 21q-23 -30 -68 -75l28 -18h-101q5 17 9 37.5t8 46t5 32.5l-39 6q-6 -58 -23 -119h-199v-29h188
q-19 -45 -31 -59h-158v-30h127q-56 -52 -135 -87q8 -9 25 -34q45 23 62 37v-2h68q-3 -49 -39.5 -85.5t-104.5 -50.5l17 -16q0 -2 1.5 -4.5t1.5 -4.5q75 19 115.5 60t44.5 101h144q0 -38 -3 -60q0 -6 -1.5 -14.5t-1.5 -10.5q0 -34 -56 -34t-70 3q1 -7 5 -15.5t6 -15.5h62
q46 0 64.5 10.5t20.5 43.5q4 27 3 60t1 37q10 -7 25 -12t37 -10.5t29 -7.5q3 2 3 8q8 14 19 31q-77 15 -143 76h140v0zM645 340h-248q37 21 71 58h109q29 -36 68 -58zM357 583q-6 6 -2 -2zM991 497q20 12 26.5 24t6.5 32v169q0 35 -26.5 59.5t-62.5 24.5h-844
q-37 0 -64 -24.5t-27 -59.5v-169q0 -13 0.5 -18t2.5 -13.5t7 -14t14 -10.5q37 -16 65 -44.5t28 -68.5q0 -86 -80 -112q-17 -10 -26.5 -27t-9.5 -30v-169q0 -35 26.5 -59.5t62.5 -24.5h845q36 0 62.5 24.5t26.5 59.5v169q0 15 -5.5 26t-9 14.5t-18.5 16.5q-47 23 -65.5 47.5
t-18.5 64.5q0 39 18 63t66 50zM967 227v-152q0 -23 -18.5 -40t-41.5 -17h-788q-24 0 -42.5 17t-18.5 40v152q50 17 84.5 60.5t34.5 96.5t-34.5 96.5t-84.5 61.5v152q0 23 18.5 39.5t42.5 16.5h788q23 0 41.5 -16.5t18.5 -39.5v-152q-51 -18 -84.5 -61.5t-33.5 -96.5
t33.5 -96.5t84.5 -60.5z" />
    <glyph glyph-name="wode1" unicode="&#xe60b;" 
d="M841 222q-7 8 -17 8t-17.5 -7.5t-7 -17.5t7.5 -17q54 -54 83.5 -124.5t29.5 -148.5q0 -10 7 -17t17 -7t17 7t7 17q0 87 -33 166.5t-94 140.5v0zM533 880q-119 0 -204 -84.5t-85 -204.5q0 -84 44.5 -154t117.5 -106q-103 -32 -180 -109q-61 -61 -94 -140.5t-33 -166.5
q0 -10 7 -17t17 -7t17 7t7 17q0 78 29.5 148.5t83.5 124.5q109 109 262 113h11q120 0 205 85t85 205t-85 204.5t-205 84.5v0zM537 349q-2 1 -4 1h-11q-96 4 -163 74t-67 167q0 100 71 170.5t170.5 70.5t170.5 -70.5t71 -170.5q0 -99 -69.5 -169.5t-168.5 -72.5v0z" />
    <glyph glyph-name="qianbao" unicode="&#xe670;" horiz-adv-x="1025" 
d="M1006 264q-58 210 -250 317q-2 2 -46 23l1 1l2.5 2.5l3 3t2.5 1.5q46 43 62 86q5 11 12 38q6 36 -1 59t-29 41q-58 47 -132 17q-5 -2 -9 1q-45 42 -109.5 42t-110.5 -41q-4 -3 -9 -1q-36 16 -77 8q-40 -8 -65.5 -37.5t-19.5 -70.5q9 -74 60 -128q1 -1 22 -23q-5 -2 -6 -2
q-130 -58 -212.5 -174t-92.5 -258q-6 -84 13 -156q16 -61 67 -101t117 -40h314h314q98 0 157 82q24 34 33 89q19 116 -11 221v0zM946 91q-9 -57 -25 -81q-22 -34 -63 -53t-84 -19h-261.5h-261.5q-58 0 -103.5 30t-58.5 81q-14 54 -7 147q4 60 32.5 121t71.5 111.5t96 91
t108 66.5q1 0 -9.5 10t-23 21t-15.5 14q-23 27 -35.5 49t-15.5 52q-8 60 57 73q10 2 27.5 -2.5t30.5 -9.5t14 -4q38 36 91.5 35.5t91.5 -36.5q3 -3 8 -1q23 10 38 14t33.5 1t33.5 -17q18 -14 21.5 -29.5t-2.5 -39.5q-2 -9 -14.5 -30t-19.5 -31q-23 -29 -65 -71l17 -8
t37 -18.5t25 -13.5q46 -35 73.5 -59t57 -56t48 -68t29.5 -80q7 -24 10.5 -38t8 -37t6 -39t1.5 -36.5t-3 -39.5v0zM946 91zM632 191h-21h-33h-32v36h32v0h54q14 0 24 10t10 23.5t-10 23.5t-24 10h-21h-33h-32v17l67 66l2 2l18 17l5 5v0l16 16q10 9 10 23t-10 24t-24 10
t-24 -10l-20 -20l-69 -68l-74 73l-20 20q-10 10 -24 10t-24 -10t-10 -24t10 -24l16 -15v0l5 -5l18 -18l2 -1l62 -62v-26h-32h-31h-23q-14 0 -24 -10t-10 -23.5t10 -23.5t24 -10h54v0h32v-36h-32h-31h-23q-14 0 -24 -10t-10 -23.5t10 -23.5t24 -10h54v0h32v-22v-1
q0 -14 10 -23.5t24 -9.5t24 9.5t10 23.5v23h32v0h54q14 0 24 10t10 23.5t-10 23.5t-24 10v0zM632 191z" />
    <glyph glyph-name="qianbao1" unicode="&#xe61e;" 
d="M504.5 444q90.5 0 175.5 -29q80 -27 143 -74q60 -44 93 -96q30 -47 30 -87q0 -70 -7 -98q-8 -35 -33 -56q-38 -31 -123 -48q-104 -22 -279 -22t-278 22q-85 17 -123 48q-26 21 -34 56q-6 28 -6 98q0 40 30 87q33 52 92 96q64 47 143 74q86 29 176.5 29zM504 506
q-100 0 -195 -32t-161.5 -82.5t-106.5 -113t-40 -120.5q0 -35 0.5 -52t5 -47.5t13 -45.5t25.5 -38.5t42 -35.5t63 -27.5t87.5 -22.5t117 -12t150 -5t150 5t117 12t87.5 22.5t63 27.5t42 35.5t25.5 38.5t13 45.5t5 47.5t0.5 52q0 58 -40 120.5t-106.5 113t-161.5 82.5
t-196 32v0zM506 817q26 0 51 -22q30 -27 50 -75q19 -50 81 -50q20 0 64 9q44 8 62 8h6v-1q0 -52 -11 -82q-10 -29 -35 -48q-31 -23 -90 -35q-70 -15 -180 -15q-108 0 -177 15q-59 13 -90 37q-25 19 -36 49q-11 32 -11 83h1q18 0 66 -11t69 -11q25 0 43.5 11t24.5 20t10 18
q19 50 50 77q25 23 52 23zM506 880q-51 0 -93.5 -38t-66.5 -102q-4 -9 -20 -9q-14 0 -62 11t-73 11q-63 0 -63 -63q0 -49 9 -85t33.5 -68t66 -51.5t108.5 -31t159 -11.5q94 0 161 11t109 30t66.5 50t33.5 66.5t9 85.5q0 63 -69 63q-23 0 -67.5 -8t-58.5 -8q-19 0 -23 10
q-25 62 -67 99.5t-92 37.5v0zM519 -36h-27v51q-51 0 -85 22v45q34 -28 85 -30v121q-54 26 -70.5 48t-16.5 53q0 35 24.5 61t62.5 31v44h27v-43q49 -2 67 -14v-44q-26 20 -67 21v-125q51 -23 70 -46t19 -52q0 -37 -24 -60t-65 -29v-54zM492 329q-43 -10 -43 -51
q0 -19 9.5 -32t33.5 -27v110zM519 54q46 10 46 49q0 33 -46 57v-106zM504 507q-46 0 -82.5 12.5t-55.5 30.5t-31.5 36t-16.5 30l-3 13q0 -41 20.5 -72.5t51.5 -48t61 -25t55 -8.5h2q25 0 55 8.5t61 25t51.5 48t20.5 72.5q-1 -5 -3.5 -13.5t-16 -29t-32 -36.5t-55 -29.5
t-82.5 -13.5zM505 468h-2q-65 0 -119.5 -13t-92.5 -34.5t-67.5 -51.5t-47 -61t-29 -65.5t-15.5 -63t-4 -55.5q1 7 4 18t15.5 43.5t29.5 62.5t47.5 66t67.5 62t92.5 44t119.5 18q211 0 322 -180q43 -70 56 -134q0 27 -4.5 55.5t-16 63t-29.5 65.5t-48 61t-68 51.5t-92 34.5
t-119 13z" />
    <glyph glyph-name="wode2" unicode="&#xe614;" 
d="M877 25q-73 -74 -167 -113.5t-198 -39.5t-198 39.5t-167 113.5q-71 72 -109 165t-38 194q0 104 40.5 199t109 163.5t163.5 109t199 40.5t199 -40.5t163.5 -109t109 -163.5t40.5 -199q0 -101 -38 -194t-109 -165zM839 48q-1 4 -1 6q-1 7 -2 11q-1 3 -4 9l-3 9l-6 9
q-4 5 -5 7q-3 3 -9 8l-7 7l-12 8l-3.5 2.5t-5.5 3.5q-4 3 -16 9q-1 1 -4.5 2.5t-5.5 2.5q-7 4 -23 12q-2 0 -5 1.5t-4 2.5q-14 6 -39 18q-37 16 -55 24q-15 7 -26.5 24.5t-17.5 32.5t-15 44l-2 6q-5 15 8 24q71 48 71 177q0 38 -11.5 66.5t-26.5 43t-36 23t-34.5 10.5
t-26.5 2t-26.5 -2t-34.5 -10.5t-36 -23t-26.5 -43t-11.5 -66.5q0 -129 71 -177q13 -9 8 -24l-2 -6q-9 -29 -15 -44t-17.5 -32.5t-26.5 -24.5q-13 -6 -55 -24q-23 -11 -38 -18q-3 -1 -6.5 -3t-5.5 -2q-16 -8 -21 -11l-6 -3t-5 -2q-12 -7 -15 -9l-9 -6l-12 -8l-7 -7
q-6 -5 -9 -8q-1 -1 -5 -7l-6 -9q-1 -2 -3.5 -8.5t-3.5 -10.5q-1 -3 -2 -9q0 -2 -1 -7q66 -65 150.5 -99t176.5 -34t176.5 34t150.5 99zM512 853q-95 0 -182 -37t-150 -100t-100 -150t-37 -182q0 -168 107 -298q0 2 1.5 5.5t2.5 3.5q3 8 4 9q4 8 10 16q1 1 2 2.5t2 2.5
q8 10 18 19q1 1 3.5 2.5t3.5 1.5q9 7 17 13q3 1 9 5q10 6 19 11q9 4 11 5q10 6 23 12q2 0 5.5 2t5.5 2q13 7 36 17q33 14 54 24q14 7 34 67q-77 63 -77 202q0 50 16 87.5t42.5 59t56.5 31.5t63 10t63 -10t56.5 -31.5t42.5 -59t16 -87.5q0 -139 -77 -202q20 -60 34 -67
q19 -8 54 -24q22 -10 36 -17q2 0 3.5 -1t3.5 -2t4 -1q12 -6 23 -12q3 -1 11 -5q9 -5 19 -11q7 -4 9 -5q8 -6 18 -13l2.5 -1.5t3.5 -2.5q10 -9 18 -19q1 -1 2 -2.5t2 -2.5q6 -8 10 -16l4 -8q1 -1 2.5 -4.5t1.5 -5.5q107 130 107 298q0 95 -37 182t-100 150t-150 100t-182 37z
" />
    <glyph glyph-name="icon5345345345654645646542342342342" unicode="&#xe6f5;" 
d="M997 444l-479 442q-10 10 -23 10t-23 -10l-445 -442q-10 -10 -10 -24.5t10 -25.5l2 -2q10 -11 23 -11t23 11l383 375v-858q0 -16 10.5 -26.5t25.5 -10.5t26 10.5t11 26.5v861l418 -378q10 -11 23 -11t23 11l2 2q10 11 10 25.5t-10 24.5z" />
    <glyph glyph-name="ego-heart" unicode="&#xe609;" 
d="M512 -13l-11 7q-202 134 -310 278t-103 272q2 64 33.5 115t87.5 83q45 25 88.5 31.5t75 -0.5t61 -24t46.5 -33t32 -34q15 18 32 34.5t46.5 33.5t61 24t75 0t88.5 -32v0q56 -32 87.5 -83.5t33.5 -114.5q5 -128 -103 -272.5t-310 -279.5zM332 737q-49 0 -103 -29
q-97 -56 -102 -166q-1 -27 4.5 -58t28.5 -83.5t62 -106t113.5 -123.5t175.5 -138q100 68 175 138t114 123.5t61.5 106t28 83.5t4.5 58q-2 54 -28.5 96.5t-73.5 69.5q-47 26 -91.5 28.5t-73.5 -10.5t-53 -33.5t-34 -34.5t-12 -19l-16 -32l-17 32l-4.5 6.5t-11.5 14.5
t-17.5 19t-24 21t-29 18.5t-35.5 13.5t-41 5z" />
    <glyph glyph-name="youhuiquan2" unicode="&#xe821;" 
d="M284 416h59v126h-59v-126zM284 360h59v-150h-59v150zM518 479q5 -7 16.5 -23t12.5 -17q3 -5 5.5 -9t3.5 -6.5t1 -3.5q2 -5 -5 -5h-14q-3 0 -12 -1q-12 0 -21 1q-10 0 -16 -5t-3 -12q1 -5 1 -15v-13q0 -6 4 -7h8h74q15 0 15 -6v-17q0 -6 -3 -6h-6h-12h-34h-19h-14
q-7 1 -9 -4q-3 -5 -4 -11q-1 -5 0 -9q1 -5 1 -10q0 -16 16 -16h76q7 0 8 -2q1 -1 1 -8q1 -8 0 -30v-9.5v-8v-4.5q0 -13 15 -13h28q10 0 10 6v9v49q0 13 10 13h11h18q14 1 20 1h23q17 0 17 12v25q0 11 -12 11h-77q-12 -3 -12 5q0 2 -0.5 6.5t-0.5 10.5q0 2 1.5 2t2.5 1
q4 3 9 3h78q12 0 12 8v28q0 5 -4 9q-4 5 -10 5h-49q-6 0 -12 1.5t-3 7.5q0 1 1.5 3t4 6t5.5 9q3 4 10.5 18t12.5 20q3 4 11 15t12 17q12 17 13 19q6 9 -7 23q-2 3 -10 8q-7 5 -13 7q-10 4 -14 1q-4 -2 -10 -11l-12 -18q0 -1 -20 -30q-8 -13 -19 -30q-9 -13 -10 -15
q-3 -5 -9 -4q-7 1 -9 6q-2 4 -11 15q-10 12 -20 26q-7 11 -21 28q-11 14 -13 19q-11 21 -23 13q-9 -5 -15 -10q-6 -6 -12 -10q-12 -8 -4 -22q19 -22 36 -46zM942 752h-860q-33 0 -56 -24t-23 -57v-90v-76q52 -12 78 -53q22 -35 22 -64q0 -30 -23 -67q-24 -38 -77 -49v-77
v-90q0 -33 23 -57t56 -24h860q33 0 56 24t23 57v90v77q-48 11 -74 54q-25 42 -25 62q0 21 25 62q26 43 74 54v77v90q0 33 -23 57t-56 24zM971 553q-46 -29 -74.5 -71.5t-28.5 -93.5t28.5 -93t74.5 -71v-147h-628v76h-59v-76h-231v140q45 27 74 73t29 98.5t-29 98t-74 73.5
v139h231v-76h59v76h628v-146v0z" />
    <glyph glyph-name="fenlei5" unicode="&#xe66b;" 
d="M64 0h896v128h-896v-128zM64 320h896v128h-896v-128zM64 768v-128h896v128h-896z" />
    <glyph glyph-name="yqfdongtai" unicode="&#xe67b;" 
d="M236 375q-29 62 -29 131q0 73 33 137q31 62 87 105h-1q14 10 14 27q0 13 -9 22t-23 9q-11 0 -20 -7l-1 1q-67 -52 -106 -128q-39 -78 -39 -166q0 -84 36 -159l1 1q8 -20 29 -20q13 0 22.5 9.5t9.5 22.5q0 8 -4 15v0zM362 421q0 7 -4 14h1q-15 33 -15 69q0 80 63 131v0
q13 10 13 26q0 13 -9.5 22t-22.5 9q-12 0 -21 -7h-1q-41 -33 -64 -80.5t-23 -100.5q0 -50 21 -96v1q9 -20 30 -20q13 0 22.5 9.5t9.5 22.5zM842 672q-39 76 -106 128l-1 -1q-9 7 -20 7q-14 0 -23 -9t-9 -22q0 -17 14 -27h-1q56 -43 88 -105q32 -64 32 -137q0 -69 -29 -131v0
q-4 -7 -4 -15q0 -13 9.5 -22.5t22.5 -9.5q21 0 30 20v-1q36 75 36 159q0 88 -39 166zM657 685h-1q-9 7 -21 7q-13 0 -22.5 -9t-9.5 -22q0 -16 13 -26v0q63 -51 63 -131q0 -36 -15 -69h1q-4 -7 -4 -14q0 -13 9.5 -22.5t22.5 -9.5q21 0 30 20v-1q21 46 21 96q0 53 -23 100.5
t-64 80.5zM542 379h-57q-25 0 -43 -18t-18 -43l-81 -295q0 -25 18 -43t44 -18h212q26 0 44 18t18 43l-75 295q0 25 -18 43t-44 18zM571 12h-120q-14 0 -24 13.5t-10 32.5l45 224q0 20 10 33.5t25 13.5h32q14 0 24 -13.5t10 -33.5l42 -224q0 -19 -10 -32.5t-24 -13.5z
M511 414q40 0 68 28t28 67.5t-28 67.5t-68 28t-68 -28t-28 -67.5t28 -67.5t68 -28zM511.5 552q17.5 0 30 -12.5t12.5 -30t-12.5 -30t-30 -12.5t-30 12.5t-12.5 30t12.5 30t30 12.5z" />
    <glyph glyph-name="fenlei6" unicode="&#xe615;" 
d="M806 474h-588q-11 0 -18.5 7.5t-7.5 18t7.5 18t18.5 7.5h588q11 0 18.5 -7.5t7.5 -18t-7.5 -18t-18.5 -7.5zM806 282h-588q-11 0 -18.5 7.5t-7.5 18t7.5 18t18.5 7.5h588q11 0 18.5 -7.5t7.5 -18t-7.5 -18t-18.5 -7.5zM806 90h-588q-11 0 -18.5 7.5t-7.5 18t7.5 18
t18.5 7.5h588q11 0 18.5 -7.5t7.5 -18t-7.5 -18t-18.5 -7.5z" />
    <glyph glyph-name="guanzhu" unicode="&#xe616;" 
d="M513 -128l-12 13q-23 24 -69 73q-156 165 -241 240v0q-34 30 -52.5 47.5t-44.5 46t-43 57.5t-28 61q-13 42 -17 86t7 93t39 85q49 63 130 88q83 26 156 -3q96 -40 175 -141q80 101 175 141q70 28 155 2q84 -26 133 -89v0q20 -25 31 -54q25 -72 10 -156q-14 -77 -59 -143
q-16 -24 -39.5 -49.5t-40 -40.5t-46.5 -41q-29 -26 -43 -39q-78 -72 -227 -226q-24 -25 -36 -38zM258 753q-53 0 -104.5 -24.5t-85.5 -67.5q-26 -33 -35.5 -78.5t-6 -86.5t16.5 -80q9 -30 25.5 -57.5t42 -55t43 -44t50.5 -45.5l1 -1q85 -75 242 -241q44 -47 66 -71
q12 12 35 36q148 155 227 227q14 13 43.5 39t45.5 40.5t38.5 39.5t38.5 47q45 66 57.5 141.5t-11.5 139.5q-9 26 -27 49v0q-46 58 -124 81.5t-140 -1.5q-42 -18 -84.5 -52.5t-60 -55t-29.5 -37.5l-9 -12l-8 12q-13 17 -30.5 37.5t-59.5 55t-84 52.5q-34 13 -73 13z" />
    <glyph glyph-name="wo" unicode="&#xe60e;" horiz-adv-x="1041" 
d="M498.5 836q-99.5 0 -170.5 -71t-71 -171q0 -66 33.5 -122.5t90.5 -88.5q-29 -8 -57 -20q-81 -34 -143 -96t-96 -143q-35 -83 -35 -174q0 -10 6.5 -16.5t16 -6.5t16.5 6.5t7 16.5q0 80 30 154t87.5 131t131 87.5t153.5 30.5q100 0 171 70.5t71 170.5t-71 171t-170.5 71z
M498 399q-18 0 -37 3v0q-69 13 -113.5 67.5t-44.5 124.5q0 81 57.5 138.5t138 57.5t138 -57.5t57.5 -138.5t-57.5 -138t-138.5 -57zM885 178q-61 103 -164 162q-8 5 -17.5 2.5t-14 -11t-2 -17.5t10.5 -14q93 -53 147 -145q56 -95 56 -205q0 -10 7 -16.5t16.5 -6.5t16 6.5
t6.5 16.5q0 123 -62 228z" />
    <glyph glyph-name="shoucang1" unicode="&#xe64d;" horiz-adv-x="1027" 
d="M513 844l130 -295l317 -33l-227 -215l57 -298l-278 157l-277 -158l66 304l-236 210l319 43zM513 896q-20 0 -36 -10.5t-24 -27.5l-115 -250l-279 -29q-19 -3 -34.5 -14.5t-21.5 -29.5q-13 -40 19 -68l208 -184l-57 -268q-4 -18 2.5 -36t22.5 -29q17 -12 39 -12q18 0 33 9
l243 146l244 -146q15 -9 33 -9q20 0 39 12q34 25 25 65l-57 268l208 184q31 28 19 68q-6 18 -21 29.5t-35 14.5l-281 29l-115 250q-8 17 -24 27.5t-35 10.5v0v0zM513 896z" />
    <glyph glyph-name="jiantou-copy" unicode="&#xe60c;" 
d="M533 -81v881l345 -345q6 -6 14 -6t14 6t6 14t-6 14l-377 377q-6 9 -17 9q-7 0 -13 -5v1l-1 -1v-1l-380 -380q-6 -6 -6 -14t6 -14t14 -6t14 6l346 345v-881q0 -9 6 -14.5t14.5 -5.5t14.5 5.5t6 14.5v0z" />
    <glyph glyph-name="daishouhuo" unicode="&#xe65f;" 
d="M290 389h-85q-11 0 -18.5 7.5t-7.5 18t7.5 18t18.5 7.5h85q10 0 17.5 -7.5t7.5 -18t-7 -18t-18 -7.5zM842 751h-202h-266h-203q-36 0 -62 -26t-26 -62v-555q0 -36 26 -61.5t62 -25.5h671q36 0 62 25.5t26 61.5v555q0 36 -26 62t-62 26zM879 663v-110h-214v147h177
q15 0 26 -11t11 -26zM614 700v-401l-88 108q-7 9 -19.5 9t-19.5 -9l-88 -108v401h215zM171 700h177v-147h-213v110q0 15 10.5 26t25.5 11zM842 72h-671q-15 0 -25.5 10.5t-10.5 25.5v394h213v-275q0 -19 17 -25t28 8l114 140l113 -140q8 -9 20 -9q4 0 8 1q17 6 17 25v275
h214v-394q0 -15 -11 -25.5t-26 -10.5z" />
    <glyph glyph-name="guanzhu1" unicode="&#xe87b;" 
d="M511 -45l-12 8q-415 292 -435 546v51q5 57 25.5 105t50.5 78t64.5 47.5t70.5 21.5q60 5 106 -6.5t73 -31.5t57 -54q30 34 57.5 54t73.5 31.5t105 6.5q36 -4 70.5 -21.5t65 -47.5t51 -77.5t24.5 -104.5v-50q-20 -256 -435 -548l-12 -8v0zM315 772q-17 0 -36 -2
q-63 -6 -114 -62t-59 -150v-47q18 -230 405 -505q387 275 405 506v48q-7 93 -58.5 148.5t-114.5 61.5q-77 7 -121 -14.5t-95 -81.5l-16 -19l-16 19q-44 53 -82 75.5t-98 22.5v0z" />
    <glyph glyph-name="wo1" unicode="&#xe611;" 
d="M813 506q17 76 -1 148t-61.5 125t-108.5 85t-138 32q-131 0 -224 -93t-93 -224q0 -73 32 -138t85 -108.5t125 -61.5t148 -1q88 20 152 84t84 152zM568 343q-67 -17 -130.5 2t-106 61.5t-61.5 106t-2 130.5q15 56 65.5 106.5t106.5 65.5q67 17 130.5 -1.5t106.5 -61.5
t61.5 -106.5t1.5 -130.5q-15 -56 -65.5 -106.5t-106.5 -65.5zM24 -70q-10 -13 -7 -28q3 -13 13 -21.5t23 -8.5q28 0 37 36q1 6 3 9l3 4q19 102 83.5 183t157.5 123q-39 18 -73 45q-94 -54 -157.5 -143.5t-82.5 -198.5zM984 -70q-19 109 -82.5 198.5t-157.5 143.5
q-35 -27 -73 -45q94 -42 158.5 -123t82.5 -183l2 -5q-1 -2 2 -3.5t3 -3.5q0 -16 10.5 -26.5t26.5 -10.5q12 0 22.5 8.5t12.5 21.5q3 15 -7 28z" />
    <glyph glyph-name="icon4" unicode="&#xe627;" horiz-adv-x="1081" 
d="M711 896h-341h-370v-1024h1081v1024h-370zM1024 839v-313h-313v313h313zM654 839v-470l-114 46l-113 -46v470h227zM370 839v-313h-313v313h313zM57 -71v540h313v-184l170 68l171 -68v184h313v-540h-967z" />
    <glyph glyph-name="evaluate-1-copy" unicode="&#xe60f;" 
d="M256 -95q-6 0 -12 2q-20 8 -20 30v121q-85 60 -135 147q-57 99 -57 211q0 92 38 175q37 81 104 142q66 62 152 96q89 35 186 35t186 -35q86 -34 152 -96q66 -61 103 -142q38 -83 38 -174.5t-38 -175.5q-37 -80 -103 -142t-152 -95q-89 -35 -186 -35q-80 0 -155 24
l-79 -79q-9 -9 -22 -9zM512 800q-85 0 -163 -30q-75 -30 -132 -83q-59 -54 -90 -124t-31 -147q0 -95 48 -179q47 -82 129 -135q15 -10 15 -27v-62l38 38q14 15 33 8q73 -27 153 -27q85 0 162 31q75 29 133 83t89.5 124t31.5 146.5t-31.5 146.5t-89.5 124q-58 53 -133 83
q-77 30 -162 30zM448 205q-21 0 -36 15l-128 128q-15 15 -15 36t15 36t36 15t36 -15l92 -91l219 219q15 15 36.5 15t36.5 -15t15 -36t-15 -36l-256 -256q-15 -15 -36 -15z" />
    <glyph glyph-name="wode-copy" unicode="&#xe602;" 
d="M801 242q-6 6 -15 6t-15 -6t-6 -15t6 -15q99 -99 99 -240q0 -9 6.5 -15t15 -6t15 6t6.5 15q0 76 -29 146t-83 124v0zM531 820q-105 0 -180 -74.5t-75 -179.5q0 -74 39 -135.5t104 -93.5q-91 -27 -158 -95q-54 -54 -83 -124t-29 -146q0 -9 6 -15t15 -6t15 6t6 15
q0 141 100 240q95 96 230 99h10q105 0 179.5 74.5t74.5 180t-74.5 180t-179.5 74.5v0zM534 354h-3h-10q-84 4 -143 65.5t-59 146.5q0 87 62 149.5t150 62.5t150 -62.5t62 -149.5t-61 -149t-148 -63v0z" />
    <glyph glyph-name="daishouhuo1" unicode="&#xe605;" 
d="M660 238l-145 129l-145 -129v545h290v-545v0v0zM407 746v-426l108 96l108 -96v426h-216v0zM202 466h127v-37h-127v37v0zM644 540h282v-37h-282v37v0zM83 540h306v-37h-306l-4 34zM876 -7h-728q-35 0 -59 24t-24 58v565q0 34 24 58.5t59 24.5h728q34 0 58.5 -24.5
t24.5 -58.5v-565q0 -34 -24.5 -58t-58.5 -24v0zM148 686q-19 0 -32.5 -13.5t-13.5 -32.5v-565q0 -19 13.5 -32.5t32.5 -13.5h728q19 0 32.5 13.5t13.5 32.5v565q0 19 -13.5 32.5t-32.5 13.5h-678h-50v0z" />
    <glyph glyph-name="Opinion" unicode="&#xe628;" horiz-adv-x="1085" 
d="M1024 53h-723l-301 -181v931q0 39 27 66t66 27h931q25 0 42.5 -17.5t17.5 -42.5v-723q0 -25 -17.5 -42.5t-42.5 -17.5v0zM1024 836h-964v-542v-302l217 121h747v723zM211 414.5q0 12.5 8.5 21t21.5 8.5h181q12 0 21 -8.5t9 -21t-9 -21.5t-21 -9h-181q-13 0 -21.5 9
t-8.5 21.5zM211 624.5q0 12.5 8.5 21.5t21.5 9h452q12 0 21 -9t9 -21.5t-9 -21t-21 -8.5h-452q-13 0 -21.5 8.5t-8.5 21z" />
    <glyph glyph-name="htmal5icon31-copy" unicode="&#xe606;" 
d="M514 818q-129 0 -230 -79.5t-137 -204.5q-32 -19 -49.5 -54t-17.5 -78q0 -64 36.5 -107t97.5 -43q13 0 23 10t10 23v234q0 11 -7 19.5t-18 11.5q37 91 116 147.5t176 56.5t176 -56.5t116 -147.5q-11 -3 -18 -11.5t-7 -19.5v-234q0 -13 10 -23t23 -10q9 0 22 2
q-14 -81 -63 -141q-22 -26 -47 -44q-9 -5 -16 -9q-1 0 -2.5 -1l-1.5 -1h-63q-9 27 -35.5 44t-60.5 17q-41 0 -70.5 -24.5t-29.5 -59t29.5 -59t70.5 -24.5q34 0 60.5 17t35.5 43h66q8 0 21 6q12 6 23 14q31 22 56 52q66 79 76 190q30 20 46.5 53.5t16.5 74.5q0 43 -17.5 78
t-49.5 54q-36 125 -137 204.5t-230 79.5z" />
    <glyph glyph-name="shangjiantou" unicode="&#xe68b;" 
d="M3 896h1018v-87h-409l404 -405q6 -5 6 -13.5t-6 -14.5l-28 -28q-6 -6 -14 -6t-14 6l-404 405v-881h-85v883l-407 -407q-6 -6 -14 -6t-14 6l-28 28q-6 6 -6 14.5t6 13.5l404 405h-409v87v0z" />
    <glyph glyph-name="kefu" unicode="&#xe720;" 
d="M901 579q-25 134 -136 225t-253 91q-147 0 -259 -90t-130 -226q-36 -9 -54.5 -28t-18.5 -45v-195q0 -32 20.5 -52.5t52.5 -20.5q53 0 73 24q21 -58 59 -105t62 -65q27 -20 68 -25l5 1q-24 19 -53 71t-44 123q-9 42 5 79t44 43q18 3 91.5 4t102.5 20q12 8 22 16t18 16.5
t13 14.5t12 15t8 11q16 20 25 49q2 5 8 5t10.5 -2t5.5 -3q3 -1 9 -4t21.5 -17t28 -33t24 -56.5t14.5 -84.5q6 -73 -33.5 -158t-63.5 -109v0q46 11 83 48t57 80t30 91q3 -4 11.5 -17.5t17 -21.5t20.5 -10q-13 -66 -60.5 -125t-108.5 -95t-123 -48q-15 29 -28 39t-45 10
q-36 0 -54.5 -22t-18.5 -51q0 -28 19 -50.5t53 -22.5q67 0 74 48q105 28 169.5 68t102.5 97.5t69 151.5q29 8 38.5 24t9.5 49v195q0 14 -4 26t-10 19.5t-14 13t-16 8t-14 4t-10.5 1.5t-4.5 1v0zM804 506q-41 115 -117.5 167t-174.5 52q-47 0 -92.5 -12t-89 -37t-79 -68.5
t-55.5 -101.5q-5 5 -25 24q21 123 119 207.5t222 84.5q121 0 207.5 -83.5t108.5 -208.5q-4 -6 -10 -12t-10 -9l-4 -3v0zM804 506z" />
    <glyph glyph-name="wode3" unicode="&#xe68c;" 
d="M951 -126q0 98 -41 184.5t-112 147.5q11 13 18 27q79 -66 123 -159.5t44 -199.5q0 -1 -15.5 -1t-16.5 1zM512 311h-5.5h-4.5q-117 -2 -215.5 -61t-156 -159t-57.5 -217q-1 -1 -16 -1.5t-16 1.5q0 165 102.5 292.5t260.5 164.5q-84 33 -136 107t-52 165q0 122 87 207.5
t209 85.5t209 -85.5t87 -207t-87 -207t-209 -85.5zM512 864q-108 0 -184 -76.5t-76 -184t76 -183.5t184 -76v0v0q108 0 184 76t76 183.5t-76 184t-184 76.5z" />
    <glyph glyph-name="qianbao2" unicode="&#xe62f;" 
d="M590 -121h-156q-7 0 -21.5 2t-50.5 11.5t-70 23t-74 40t-69 60t-48.5 85.5t-19.5 114q0 70 24.5 135.5t58 110t79.5 84t78 59t63 35.5l-89 138q-8 13 -1 26.5t22 13.5h116l60 64q7 8 18 8h4q11 0 18 -8l60 -64h116q15 0 22 -14q7 -13 -1 -26l-89 -138q31 -16 63 -35.5
t78 -59t79.5 -84t58 -110t24.5 -135.5q0 -62 -19.5 -114t-48.5 -85.5t-69 -60t-73.5 -40t-70 -23t-49.5 -11.5t-21 -2h-1h-1zM363 766l80 -124q6 -10 2.5 -21t-14.5 -16q-8 -3 -18 -8t-42 -24t-59.5 -39.5t-62.5 -55t-59.5 -71.5t-41 -88t-16.5 -104t16.5 -97t41 -72
t58.5 -50.5t62.5 -34t60.5 -19.5t44 -10t21 -3h153q10 1 24 3.5t45.5 10.5t60 20t61.5 34.5t57 51t40 71.5t16 95q0 53 -17 104t-41.5 88t-59.5 71.5t-62.5 55t-59.5 39.5t-42 24t-18 8q-11 5 -14.5 16t2.5 21l80 124h-81q-11 0 -18 8l-50 54l-50 -54q-7 -8 -18 -8h-81z
M603 603h-182q-10 0 -17.5 7.5t-7.5 18t7.5 18t17.5 7.5h182q10 0 17.5 -7.5t7.5 -18t-7.5 -18t-17.5 -7.5zM507 3q-13 0 -18 8q-5 6 -5 20v98h-115q-22 0 -22 21q0 22 20 22h117v56h-115q-22 0 -22 21q0 22 20 22h95l-110 179q-7 6 -5 16q1 10 8 15q6 5 14 5q12 -1 18 -12
l121 -202l118 200q9 14 18 14q7 0 14 -5q9 -5 9 -14q0 -7 -5 -18l-108 -178h93q21 0 21 -22q0 -21 -21 -21h-118v-56h118q21 0 21 -22q0 -21 -21 -21h-118v-98q0 -14 -4 -20q-5 -8 -18 -8z" />
    <glyph glyph-name="wode4" unicode="&#xe636;" 
d="M900 -2q-6 81 -44.5 153.5t-102.5 122.5l-5 4v0q-8 4 -16 4q-32 0 -32 -25q0 -14 12 -24v0l4 -3q109 -78 121 -233v-1v-2q0 -13 9 -22.5t22 -9.5t22 9t9 21h1v6zM799 524q0 117 -84.5 200t-203 83t-202.5 -83t-84 -200q0 -63 27 -119.5t76 -96.5q-88 -47 -142.5 -131
t-61.5 -183v-5v0v-1v0v-1q0 -11 8 -18.5t19 -7.5t18.5 7.5t7.5 18.5v1h1v6q7 93 62 169t140 110q69 -32 132 -32q65 0 124 28l29 17l24 16q52 40 81 98.5t29 123.5zM512 298q-95 0 -162 66.5t-67 160t67 159.5t162 66t162 -66t67 -159.5t-67 -160t-162 -66.5z" />
    <glyph glyph-name="zuji" unicode="&#xe610;" 
d="M755 367q-15 86 -68 153t-122 67q-99 0 -156 -57q-29 -29 -39.5 -56.5t-7.5 -64.5q2 -15 8.5 -28t20.5 -25t24 -19t29 -20q23 -15 35.5 -24t27.5 -25t20 -33q9 -28 9 -108q0 -40 26 -65t54 -32h2q20 -3 36 -3q39 0 60.5 18.5t39.5 61.5q13 30 13 106.5t-12 153.5z
M721 121q-15 -36 -28 -47.5t-39 -11.5q-13 0 -30 3q-5 1 -11.5 4t-17 10t-17.5 19.5t-7 28.5q0 86 -10 119q-7 22 -25 42.5t-32.5 31t-40.5 27.5q-21 14 -32 21.5t-21.5 20t-11.5 23.5q-3 29 5 49.5t31 43.5q47 47 131 47q51 0 96.5 -56t58.5 -135q12 -79 12 -147.5
t-11 -92.5zM272 588q-21 0 -37 -13q-20 -16 -19.5 -45t19.5 -53q26 -29 60 -29q22 0 37 12q21 18 20 48q-1 28 -20 50q-25 30 -60 30zM309 487q-8 -7 -22 -3t-24 16q-11 12 -12 26.5t7 21.5q6 5 14 5q18 0 33 -17q11 -14 12 -29q0 -13 -8 -20zM371 574q16 0 28 10
q16 13 16 36q-1 21 -15 38q-15 17 -36.5 20.5t-36.5 -8.5q-15 -13 -15.5 -34.5t14.5 -39.5q19 -22 45 -22zM350 643q2 2 5 2v0q10 0 18 -10q6 -7 6 -16q1 -6 -2 -8q-3 -3 -10.5 -1.5t-13.5 9.5q-5 6 -6 13.5t3 10.5zM477 609q16 0 28 10q15 13 15.5 34.5t-14.5 39.5
q-15 17 -36.5 21t-36.5 -9q-16 -13 -16 -36q1 -21 15 -38q19 -22 45 -22zM456 678q2 2 5 2v0q10 0 18 -10q5 -6 6 -13.5t-3 -10.5q-2 -3 -9.5 -1t-13.5 9t-6 16q-1 5 3 8zM580 610q7 0 14 2q19 7 25 28q6 19 -2 39q-6 16 -19 26t-28 10q-8 0 -14 -3q-18 -7 -25 -26t1 -40
q7 -16 20 -26t28 -10zM566 684q2 1 4 1q13 0 19 -17q4 -10 1 -19q-2 -7 -7 -9t-12 2.5t-11 14.5q-3 9 -1 17t7 10zM671 571h3q18 1 29 18q10 15 8 35q-1 20 -14.5 33.5t-30.5 12.5q-19 -2 -30 -19q-10 -15 -8 -34.5t14 -32.5t29 -13zM658 637q4 6 11 6q5 0 10 -6t6 -16
t-4 -17q-4 -6 -9 -7h-1q-6 0 -11 6.5t-6 15.5q0 10 4 18z" />
    <glyph glyph-name="xiaoxi" unicode="&#xe502;" horiz-adv-x="1281" 
d="M1047 762l-18 -19q71 -71 108.5 -167t37.5 -193.5t-37.5 -193.5t-108.5 -167l18 -19q77 77 117.5 177.5t40.5 202t-40.5 202t-117.5 177.5zM885 632q51 -51 77.5 -117t26.5 -132.5t-26.5 -132.5t-77.5 -117l18 -27q75 75 101.5 175.5t0 201.5t-101.5 176zM230 762
q-77 -77 -117 -177.5t-40 -202t40 -202t117 -177.5l18 19q-71 71 -108.5 167t-37.5 193.5t37.5 193.5t108.5 167zM392 632l-17 27q-57 -56 -86 -129t-29 -147.5t29 -147.5t86 -129l17 27q-51 51 -77.5 117t-26.5 132.5t26.5 132.5t77.5 117zM637 534q-63 0 -107 -44.5
t-44 -107t44 -107t107 -44.5t107 44.5t44 107t-44 107t-107 44.5zM637 260q-51 0 -86.5 36t-35.5 86.5t35.5 86.5t86.5 36t86.5 -36t35.5 -86.5t-35.5 -86.5t-86.5 -36z" />
    <glyph glyph-name="shouhou" unicode="&#xe644;" 
d="M703 337q11 0 20 -8.5t9 -19.5q0 -9 -9 -18t-20 -9h-167v-126q0 -10 -7 -18t-20 -8q-12 0 -20.5 8t-8.5 18v126h-160q-11 0 -19.5 8.5t-8.5 18.5t8.5 19t19.5 9h160v60h-160q-11 0 -19.5 9t-8.5 20q0 9 8.5 17.5t19.5 8.5h136l-109 148q-5 8 -1.5 19.5t13.5 15.5
q11 5 21 2t16 -11l114 -153l116 142q19 28 43 13q9 -5 10.5 -14t-0.5 -16l-3 -6l-114 -140h134q12 0 21 -8.5t9 -19t-9 -19t-21 -8.5h-160v-60h167v0zM1016 701q0 16 -11 26.5t-26.5 10.5t-26.5 -10.5t-12 -26.5v0v-37q-70 107 -183 169.5t-245 62.5q-121 0 -227.5 -53
t-178 -146t-95.5 -208q-3 -7 -3 -15v-0.5v-1v-1t-1 -0.5h1q1 -14 11.5 -23.5t24.5 -9.5t24.5 9.5t11.5 23.5v0q31 152 152 252.5t280 100.5q154 0 273.5 -95t154.5 -242v-16h1q1 -14 12.5 -23.5t25 -9.5t24.5 9.5t13 23.5v0v230v0zM980 336q-15 0 -25.5 -10.5t-10.5 -25.5
v-1.5v-1.5v0q-31 -152 -152 -252.5t-280 -100.5q-154 0 -273.5 95t-154.5 242v11v0v6q0 15 -11 26.5t-27 11.5t-27 -11.5t-11 -26.5v-1h-1q1 0 1 -0.5v-1.5v-3h-1v-230h1q2 -14 13 -23.5t24.5 -9.5t25 9.5t12.5 23.5h1v42q70 -107 183 -169.5t245 -62.5q123 0 231 54.5
t179 150t93 213.5q1 2 1 5v1t1 1h-1q0 1 0.5 1.5t0.5 1.5q0 15 -11 25.5t-26 10.5v0z" />
    <glyph glyph-name="sousuo_sousuo" unicode="&#xe61a;" 
d="M1010 -40v0v0v0q14 -16 14 -35q0 -22 -15 -38q-15 -15 -37 -15h-1v0q-9 0 -17.5 3t-15.5 8l-6 5l-282 285q-102 -72 -228 -72q-12 0 -25 1t-26 3q-37 4 -84.5 21.5t-78.5 38.5q-80 51 -128 136q-23 39 -36 83t-16 90v24q0 34 5 68q5 30 20 70.5t31 67t44.5 58.5t53.5 51
q50 40 113 61q62 22 127 22q28 0 53 -3q67 -10 129 -42q26 -13 57.5 -37t50.5 -45q53 -56 81.5 -132.5t24.5 -155.5q-4 -131 -90 -236l283 -285h-1v0zM759 482v17q0 26 -7 61.5t-16 58.5q-15 41 -40 76t-59 63t-73 47q-27 12 -68 21t-72 9q-19 0 -38 -2q-5 0 -11 -1l-6 -1
q-31 -5 -70.5 -21t-65.5 -33q-26 -18 -54.5 -49t-44.5 -58q-42 -70 -46 -155.5t31 -159.5q13 -27 38 -60.5t49 -53.5q23 -20 60 -39.5t66 -27.5q73 -21 148 -8q39 7 75 22.5t68 39.5t57 54q26 30 43 65v0q14 27 24 66.5t12 68.5z" />
    <glyph glyph-name="search" unicode="&#xe501;" 
d="M873 77v0v0v0q10 -12 10 -26q0 -15 -11 -27q-11 -11 -27 -11v0q-7 0 -13 2q-9 3 -16 11v-1l-204 206q-74 -52 -165 -52q-9 0 -19 1q-18 1 -35 6q-56 3 -117 51q-41 24 -77 87q-29 49 -35 109l-1 -1q-2 16 -2 32q0 4 0 3q0 25 5 50q10 67 52 122q10 20 40 44.5t66 40.5
l-10 -3q10 7 41 18q43 16 92 16v0q20 0 38 -3q49 -6 94 -29q73 -39 113 -109l-2 7q11 -12 26 -54q20 -56 18 -113q-4 -95 -66 -171l206 -206h-1v0zM691 455v13q0 46 -18 88q-19 53 -61 91q-8 7 0 -1q-5 5 -10 9q-47 40 -108 52q-15 3 0 1q-24 3 -45 3q-15 0 -30 -2
q-2 0 -6 -1h-5q-66 -11 -116 -53q-19 -12 -39.5 -41t-32.5 -64q-1 3 -3 -3q-10 -24 -12 -69q-3 -62 23 -115q31 -69 97 -106q0 -3 12 -9.5t34 -13t44 -9.5q1 -2 11.5 -2.5t28 0t33.5 3.5q46 8 84 31q7 2 27 18.5t37 37.5l-1 -4q12 11 33 53q2 3 3 7l-14 -26q4 7 8 15v0
q25 48 26 104v-7z" />
    <glyph glyph-name="huiyuanzhongxin1" unicode="&#xe683;" 
d="M1021 582q-8 23 -28.5 36t-43.5 8q-24 -5 -39 -24t-12 -44q0 -17 20 -44q-2 -2 -5 -3.5t-5 -3.5q-123 -75 -181 -113q-13 -7 -17.5 -5.5t-13.5 12.5q-18 36 -57.5 107.5t-58.5 107.5q-13 27 -41 75q33 23 39 50t-15 53q-18 20 -46.5 22t-48.5 -16q-21 -20 -21 -47
q0 -35 41 -58l-164 -297q-8 -12 -24 -7q-47 28 -54 34q-24 14 -72 43t-72 42q7 11 11 14q27 32 10 72q-8 17 -25.5 26.5t-36.5 7.5q-20 -3 -36.5 -15t-21.5 -30q0 -1 -1.5 -4.5t-1.5 -5.5v-20q1 -3 3 -9.5t4 -7.5q19 -35 61 -35q4 -13 12.5 -40.5t11.5 -40.5q14 -50 43 -149
t42 -148q3 -13 9 -17t19 -4h614q13 0 17.5 4t10.5 17q17 61 52.5 182t52.5 183q0 2 2 5t2 5q51 0 68 51v21q0 3 -1 5.5t-2 3.5v1zM799 39h-570q-21 0 -31 -10q-13 -8 -17.5 -23.5t0.5 -31.5q11 -34 48 -34h583q19 6 29.5 20t8.5 31q-3 23 -16.5 35.5t-34.5 12.5z" />
    <glyph glyph-name="wodezuji" unicode="&#xe630;" 
d="M817 533q-40 52 -102 83q-80 41 -174 41q-3 0 -6.5 -0.5t-5 -0.5h-2.5q-122 -15 -197 -92q-27 -28 -50 -74v-1q-8 -29 -8.5 -55t4 -45t16.5 -37t22.5 -29t29.5 -23.5t30 -18.5t31 -16q46 -23 55 -35q18 -24 22 -54.5t0 -50.5t-13 -52q-8 -27 -11 -42q-9 -65 27 -106
q19 -23 51 -35.5t51.5 -15t38.5 -2.5q20 0 36 3q83 17 138 80q46 53 70 138q19 70 21 154.5t-9 132.5q-17 91 -65 153zM505 23q2 11 10 36q16 56 17 89q2 62 -34 109q-16 22 -72 49q-65 33 -85 58q-34 41 -16 110q3 8 8.5 17.5t22.5 29.5t38 36t57.5 31t80.5 20h9
q16 0 33 -1t44 -7t51.5 -15.5t52 -28t49 -42.5t39 -61t25.5 -82q10 -46 8.5 -124t-19.5 -143q-45 -158 -172 -184q-8 -2 -26 -2q-74 0 -106 36q-21 26 -15 69zM365 731q0 68 -48 116.5t-116 48.5t-116.5 -48.5t-48.5 -116.5t48.5 -116.5t116.5 -48.5t116 48.5t48 116.5z
M201 614q-49 0 -83.5 34t-34.5 83t34.5 83.5t83.5 34.5t83.5 -34.5t34.5 -83.5t-34.5 -83t-83.5 -34zM490.5 723q35.5 0 61 25.5t25.5 61t-25.5 60.5t-61 25t-61 -25t-25.5 -61q0 -35 25.5 -60.5t61 -25.5zM451 809.5q0 16.5 11.5 28t28 11.5t28 -11.5t11.5 -28t-11.5 -28
t-28 -11.5t-28 11.5t-11.5 28zM717.5 703q35.5 0 61 25.5t25.5 61t-25.5 61t-61 25.5t-61 -25.5t-25.5 -61t25.5 -61t61 -25.5zM678 789q0 17 11.5 28.5t28 11.5t28 -11.5t11.5 -28t-11.5 -28t-28.5 -11.5q-16 0 -27.5 12t-11.5 27zM901 774q-36 0 -61 -25t-25 -61t25 -61
t61 -25t61 25t25 61q1 36 -24.5 61t-61.5 25zM941 688q0 -16 -12 -28t-28 -12t-28 12t-12 28t12 28t28 12t28 -12t12 -28z" />
    <glyph glyph-name="guanzhu-" unicode="&#xe61b;" 
d="M872 650q-35 46 -85.5 70t-104.5 24q-99 0 -169 -70q-70 70 -169 70q-55 0 -105 -24t-85 -70q-54 -73 -45.5 -163.5t73.5 -156.5l303 -303q12 -11 28 -11t28 11l303 303q65 66 73.5 156.5t-45.5 163.5zM817 358l-304 -303l-304 303q-55 56 -62 132.5t38 135.5
q29 38 70.5 58.5t88.5 20.5q83 0 141 -58l28 -28l28 28q58 58 141 58q47 0 88.5 -20.5t70.5 -58.5q45 -59 38 -135.5t-62 -132.5z" />
    <glyph glyph-name="sou" unicode="&#xe505;" 
d="M873 77v0v0v0q10 -12 10 -26q0 -15 -11 -27q-11 -11 -27 -11v0q-7 0 -13 2q-9 3 -16 11v-1l-204 206q-74 -52 -165 -52q-9 0 -19 1q-18 1 -35 6q-56 3 -117 51q-41 24 -77 87q-29 49 -35 109l-1 -1q-2 16 -2 32q0 4 0 3q0 25 5 50q10 67 52 122q10 20 40 44.5t66 40.5
l-10 -3q10 7 41 18q43 16 92 16v0q20 0 38 -3q49 -6 94 -29q73 -39 113 -109l-2 7q11 -12 26 -54q20 -56 18 -113q-4 -95 -66 -171l206 -206h-1v0zM691 455v13q0 46 -18 88q-19 53 -61 91q-8 7 0 -1q-5 5 -10 9q-47 40 -108 52q-15 3 0 1q-24 3 -45 3q-15 0 -30 -2
q-2 0 -6 -1h-5q-66 -11 -116 -53q-19 -12 -39.5 -41t-32.5 -64q-1 3 -3 -3q-10 -24 -12 -69q-3 -62 23 -115q31 -69 97 -106q0 -3 12 -9.5t34 -13t44 -9.5q1 -2 11.5 -2.5t28 0t33.5 3.5q46 8 84 31q7 2 27 18.5t37 37.5l-1 -4q12 11 33 53q2 3 3 7l-14 -26q4 7 8 15v0
q25 48 26 104v-7z" />
    <glyph glyph-name="sousuo_sousuo1" unicode="&#xe50b;" 
d="M873 77v0v0v0q10 -12 10 -26q0 -15 -11 -27q-11 -11 -27 -11v0q-7 0 -13 2q-9 3 -16 11v-1l-204 206q-74 -52 -165 -52q-9 0 -19 1q-18 1 -35 6q-56 3 -117 51q-41 24 -77 87q-29 49 -35 109l-1 -1q-2 16 -2 32q0 4 0 3q0 25 5 50q10 67 52 122q10 20 40 44.5t66 40.5
l-10 -3q10 7 41 18q43 16 92 16v0q20 0 38 -3q49 -6 94 -29q73 -39 113 -109l-2 7q11 -12 26 -54q20 -56 18 -113q-4 -95 -66 -171l206 -206h-1v0zM691 455v13q0 46 -18 88q-19 53 -61 91q-8 7 0 -1q-5 5 -10 9q-47 40 -108 52q-15 3 0 1q-24 3 -45 3q-15 0 -30 -2
q-2 0 -6 -1h-5q-66 -11 -116 -53q-19 -12 -39.5 -41t-32.5 -64q-1 3 -3 -3q-10 -24 -12 -69q-3 -62 23 -115q31 -69 97 -106q0 -3 12 -9.5t34 -13t44 -9.5q1 -2 11.5 -2.5t28 0t33.5 3.5q46 8 84 31q7 2 27 18.5t37 37.5l-1 -4q12 11 33 53q2 3 3 7l-14 -26q4 7 8 15v0
q25 48 26 104v-7z" />
    <glyph glyph-name="sousuo-sousuo" unicode="&#xe8e0;" 
d="M668 612q-80 80 -193 80t-193 -80t-80 -193t80 -193t193 -80t193 80t80 193t-80 193zM222.5 166.5q-49.5 49.5 -77 114.5t-27.5 138q0 97 47.5 179.5t130 130t179.5 47.5t179.5 -47.5t130 -130t47.5 -179.5q0 -73 -27.5 -138t-77 -114.5t-114.5 -77t-138 -27.5t-138 27.5
t-114.5 77zM890 4q-15 -14 -35 -14t-34 14l-69 69q-14 14 -14 34.5t14 34.5t34.5 14t34.5 -14l69 -69q14 -14 14 -34.5t-14 -34.5z" />
    <glyph glyph-name="shouye-shouye" unicode="&#xe6e6;" 
d="M1013 377l-501 468l-500 -467q-8 -7 -8 -17t7 -17t17 -7.5t17 6.5l467 435l467 -436q7 -7 16 -7q11 0 18 8q7 7 7 17t-7 17zM860 367q-10 0 -17 -7t-7 -17v-372h-194v259h-260v-258h-194v372q0 10 -7 17t-17 7t-17.5 -7t-7.5 -17v-421h292v259h161v-258h292v420
q0 9 -7 16t-17 7z" />
    <glyph glyph-name="shouye-maimaimai" unicode="&#xf02ed;" 
d="M910 714q0 73 -52.5 125.5t-125.5 52.5h-440q-73 0 -125.5 -52t-52.5 -122l-55 -668q0 -73 52.5 -125.5t125.5 -52.5h559q72 0 124.5 52.5t52.5 125.5zM791 -39h-558q-38 0 -65.5 26.5t-27.5 62.5l59 664q0 38 27.5 65.5t65.5 27.5h444q38 0 65.5 -27.5t27.5 -65.5
l51 -664q0 -38 -25.5 -63.5t-63.5 -25.5zM719 710q-19 0 -30.5 -11.5t-11.5 -30.5q0 -73 -49 -123.5t-116 -50.5t-116 50.5t-49 123.5q0 19 -11.5 30.5t-30.5 11.5t-31 -11.5t-12 -30.5q0 -108 74 -183.5t176 -75.5t176 75.5t74 183.5q0 19 -12 30.5t-31 11.5z" />
    <glyph glyph-name="shishidongtai_fill" unicode="&#xe6d1;" 
d="M863 384q0 116 -68 211q-8 10 -21 12.5t-23.5 -5.5t-13 -21t5.5 -24q56 -78 56 -173t-56 -173q-8 -11 -5.5 -24t12.5 -21q9 -6 19 -6q16 0 26 13q68 95 68 211zM271.5 602q-10.5 8 -23.5 5.5t-21 -12.5q-68 -95 -68 -211t68 -211q10 -13 26 -13v0v0q10 0 19 6
q10 8 12.5 21t-5.5 24q-56 78 -56 173t56 173q8 11 5.5 24t-13 21zM851 757q-8 10 -21.5 11t-23.5 -8t-11 -22t8 -23q61 -69 93 -154.5t32 -176.5t-32 -176.5t-93 -154.5q-9 -10 -8 -23t11 -22q9 -8 21 -8v0q15 0 24 11q68 78 104.5 174t36.5 199t-36.5 199t-104.5 174z
M97 384q0 91 32.5 176.5t92.5 154.5q9 10 8 23t-11 22t-23 8t-22 -11q-68 -78 -104.5 -174t-36.5 -199t36.5 -199t104.5 -174q9 -11 24 -11v0q12 0 21 8q10 9 11 22t-8 23q-60 69 -92.5 154.5t-32.5 176.5zM692 248q6 8 10 13q0 1 1 3l1 1q5 9 8 14q1 1 1.5 2.5t1.5 2.5
q4 8 6 15q1 1 1.5 3t0.5 3q4 9 5 14q1 1 1.5 4t1.5 4q2 10 3 13l2 11q0 1 0.5 4.5t0.5 5.5q1 12 1 23q0 93 -65.5 158.5t-158.5 65.5t-158.5 -65.5t-65.5 -158.5q0 -12 1 -24h1q5 -47 28 -88v0q6 -10 13 -19q0 -1 1 -1q6 -9 14 -17v-1l1 -1q7 -8 15 -15l1 -1v0v0
q39 -35 90 -49q-9 -14 -18 -23q-10 -10 -9.5 -23t10 -22.5t22.5 -9.5t23 10q26 27 42 60q1 0 3 0.5t3 0.5q7 0 11 1q5 0 11 2q6 1 11 2q3 0 10 2t11 4q5 1 9 3l12 4q1 1 7 4l12 6l6 4q7 4 12 8q1 0 5 3q7 6 12 10l4 3l11 11l2 2t1 2q7 6 11 12q1 2 3 4z" />
    <glyph glyph-name="shouhou1" unicode="&#xe61c;" 
d="M878 405.5q-5 -8.5 -14 -11t-18 1.5l-114 65q-12 7 -12 20q0 7 3 12q5 8 14 10.5t18 -1.5l114 -65q9 -5 11.5 -14t-2.5 -17.5zM846.5 396q8.5 -4 17.5 -1t14 11l59 118q3 4 3 10q0 14 -13 21q-5 2 -10 2q-15 0 -21 -12l-60 -118q-4 -8 -1 -17.5t11.5 -13.5zM333 430h272
v-23h-272v23zM333 348h272v-24h-272v24zM457 464h23v-264h-23v264zM470 -25v0h-1q-70 0 -154.5 35t-134.5 85q-57 58 -88 132.5t-31 156.5t31 157t89 133q49 49 133.5 84t154.5 35h1v0q156 0 272.5 -103.5t134.5 -258.5v-2q0 -9 -7 -16t-17 -7q-8 0 -14.5 6t-8.5 14
q-15 137 -118 229t-242 92v0h-1q-62 0 -136.5 -31t-118.5 -75q-52 -52 -79.5 -118t-27.5 -138.5t27.5 -139t78.5 -117.5q44 -44 119 -75.5t137 -31.5h1v0q75 0 142 29t119 82q7 7 17 7q9 0 16 -6.5t7 -16.5q0 -9 -7 -16q-49 -52 -135 -88.5t-158 -36.5h-1zM560 518l-75 -66
q-3 -3 -7 -3q-6 0 -9 4q-3 3 -3 8t4 8l75 66q3 3 8 3t9 -4q2 -3 2 -8t-4 -8zM377 518l75 -66q9 -8 16 1q3 3 3 8t-4 8l-75 66q-3 3 -7 3q-6 0 -9 -4q-3 -3 -3 -8t4 -8z" />
    <glyph glyph-name="fa-headphones" unicode="&#xe541;" 
d="M638 470q0 23 16.5 39t40 15.5t39.5 -17t15 -39.5q0 -23 -16.5 -39t-39.5 -16t-39.5 17t-15.5 40zM297 470q0 23 17 39t40 15.5t39 -17t16 -39.5q-1 -23 -17.5 -39t-38.5 -16q-24 0 -40.5 17t-15.5 40zM695 295q0 14 9.5 23.5t22.5 9.5h58q14 0 23.5 -9.5t9.5 -23.5
t-9.5 -23.5t-23.5 -9.5h-27q-12 -82 -75 -131.5t-157 -49.5t-157 49.5t-75 131.5h-29q-14 0 -23.5 9.5t-9.5 23.5t9.5 23.5t23.5 9.5h59q14 0 23.5 -9.5t9.5 -23.5q0 -72 49.5 -110t119 -38t119.5 38t50 110zM514 -128q-99 1 -189 41t-154 105.5t-101.5 156.5t-36.5 189
q2 97 40 185t101.5 152t151 103t184.5 41q4 2 15 8q33 22 71 31q14 3 25 -4.5t13 -21.5h1q2 -14 -5.5 -25t-21.5 -14q-27 -8 -50 -23q-20 -15 -44 -18q-114 2 -212 -52t-156 -150t-60 -210t52 -211.5t150 -155.5t210 -60.5t211.5 52t155.5 150t60 209.5v8q1 79 -27.5 153
t-82.5 133q-16 19 -58 153q-29 -31 -52.5 -51t-37 -28.5t-26 -10t-17 0t-10.5 4.5q-12 7 -16 20t3 25q10 20 33 17q63 48 113 110q12 15 31 11t25 -23q25 -94 62 -185q61 -68 93.5 -153t32.5 -176q1 -98 -36.5 -187.5t-101.5 -154.5t-152.5 -104t-186.5 -40z" />
    <glyph glyph-name="shouye-shouye1" unicode="&#xe503;" 
d="M1013 377l-501 468l-500 -467q-8 -7 -8 -17t7 -17t17 -7.5t17 6.5l467 435l467 -436q7 -7 16 -7q11 0 18 8q7 7 7 17t-7 17zM860 367q-10 0 -17 -7t-7 -17v-372h-194v259h-260v-258h-194v372q0 10 -7 17t-17 7t-17.5 -7t-7.5 -17v-421h292v259h161v-258h292v420
q0 9 -7 16t-17 7z" />
    <glyph glyph-name="pingjia" unicode="&#xe7df;" 
d="M518 896q-143 0 -262 -60t-187.5 -165t-68.5 -231q0 -184 181 -327v-213q0 -17 14 -23q6 -5 14 -5q6 0 13 3q14 8 34 19t70.5 51t89.5 86q73 -13 115 -13q220 0 356 116.5t136 306.5q0 128 -65.5 232t-181.5 163.5t-258 59.5zM532 73q-43 0 -120 16q-18 4 -27 -10
q-59 -71 -146 -130v178q0 13 -11 23q-33 24 -60.5 51.5t-54 64t-41.5 81.5t-15 93q0 110 61 202t166.5 144.5t233.5 52.5q126 0 229 -52t161.5 -143.5t58.5 -203.5q0 -165 -120 -266t-315 -101zM701 558l-262 -262l-150 144q-9 8 -20.5 7.5t-19.5 -8.5q-8 -9 -7.5 -20.5
t8.5 -19.5l170 -163q8 -8 19 -8q13 0 21 8l281 281q8 9 8 20.5t-8 19.5q-9 9 -21 9.5t-19 -8.5z" />
    <glyph glyph-name="sousuo" unicode="&#xe504;" 
d="M1010 -40v0v0v0q14 -16 14 -35q0 -22 -15 -38q-15 -15 -37 -15h-1q-9 0 -17 3q-13 4 -22 14v-1l-282 285q-102 -72 -228 -72q-12 0 -25 1q-25 2 -49 8q-36 3 -79.5 21.5t-82.5 48.5q-24 15 -53 47.5t-53 73.5q-41 68 -49 150l1 -12q-4 16 -4 56v-7v10q0 36 6 70
q15 93 72 168q14 27 55 61t91 57l-13 -4q15 10 56 24q60 22 127 22v0q28 0 53 -3q67 -10 129 -42q101 -52 157 -149l-3 9q14 -16 35 -74q29 -77 25 -156q-4 -131 -90 -236l283 -285h-1v0zM759 482v17q0 64 -24 123q-27 72 -85 124l14 -12q-10 10 -27 24q-65 55 -149 72
q-29 5 1 0q-33 5 -65 5q-20 0 -40 -2q-4 0 -9 -1l-6 -1q-91 -15 -161 -73q-26 -17 -54.5 -57t-44.5 -87q-1 4 -5 -5q-13 -33 -16 -95q-4 -85 31 -159q44 -96 134 -147q0 -4 17 -12.5t47.5 -18t61.5 -13.5q1 -2 15 -3t38 0t47 5q63 11 116 43q10 2 37.5 25t51.5 51l-3 -5
q14 12 41 63l10 20l-20 -37q5 9 11 21v0q35 67 36 145v-10z" />
    <glyph glyph-name="zuji1" unicode="&#xe6dc;" 
d="M622 -62q-39 0 -75 18t-57 48q-13 18 -16.5 37.5t1.5 40.5t10.5 33.5t16.5 34.5q22 44 23 63v4q0 13 -4 25q-4 16 -19.5 33t-28.5 27.5t-39 28.5q-59 41 -80 67q-4 5 -9 13t-10.5 30.5t-0.5 45.5q14 68 108 117q1 1 3 1q6 3 20.5 8t50.5 11.5t70 6.5q39 0 74 -8.5
t72.5 -30t68.5 -64.5t49 -104q4 -12 8.5 -32t8.5 -72t-2 -101t-32 -110t-73 -109q-6 -6 -14 -12.5t-27 -20t-44.5 -21.5t-52.5 -8v0zM398 434q16 -20 68 -57q24 -16 36 -25.5t30 -25.5t28.5 -32.5t15.5 -35.5q5 -20 5 -41v-7q-1 -31 -29 -86q-9 -17 -13.5 -27.5t-7.5 -22.5
t-1.5 -21t7.5 -17q13 -19 36.5 -30.5t48.5 -11.5q48 0 97 45l0.5 0.5l0.5 0.5q39 40 61.5 93.5t27 97t1.5 88.5t-7 63t-7 26q-49 167 -210 167q-62 0 -119 -22q-68 -36 -77 -77q-6 -23 8 -42v0zM267.5 554q-52.5 0 -89.5 38t-37 91t37 91t89.5 38t89.5 -38t37 -91t-37 -91
t-89.5 -38zM268 756q-29 0 -49.5 -21.5t-20.5 -51.5t20.5 -51t49.5 -21t49.5 21t20.5 51t-20.5 51.5t-49.5 21.5v0zM483 694q-28 0 -47.5 20t-19.5 48.5t19.5 48.5t47.5 20t48 -20t20 -48.5t-20 -48.5t-48 -20zM483.5 784q-8.5 0 -14.5 -6.5t-6 -15t6 -15t14.5 -6.5
t14.5 6.5t6 15t-6 15t-14.5 6.5zM654 678q-28 0 -48 20t-20 48.5t20 48.5t48 20t48 -20t20 -48.5t-20 -48.5t-48 -20v0zM654 768q-8 0 -14 -6.5t-6 -15t6 -15t14.5 -6.5t14.5 6.5t6 15t-6 15t-15 6.5v0zM812 612q-28 0 -48 20.5t-20 48.5t20 48t48 20t47.5 -20t19.5 -48
t-19.5 -48.5t-47.5 -20.5zM811.5 702q-8.5 0 -14.5 -6t-6 -15t6 -15.5t14.5 -6.5t14.5 6.5t6 15.5t-6 15t-14.5 6z" />
    <glyph glyph-name="huiyuanzhongxin2" unicode="&#xe67c;" horiz-adv-x="1029" 
d="M151 86l26 -214h783l27 214h-836zM1008 578q-15 10 -31 9.5t-28 -5.5l-12 -6l-174 -115l-202 231q24 13 42 41t18 56q-1 43 -32.5 74t-75 31t-75 -31t-32.5 -74q0 -29 18.5 -57.5t44.5 -40.5l-213 -227l-156 108q-20 12 -39 13t-25 -1.5t-9 -4.5v0q-10 -7 -16.5 -17
t-8.5 -19.5t-2 -18.5t1 -14l1 -6l43 -268q3 -10 10 -14.5t12 -4.5l5 1q10 2 15 8.5t5 11.5v6l-45 275q-1 6 -1 9.5t1 4.5l1 2q3 4 7.5 5t7.5 -1l3 -1l175 -122q3 -4 7.5 -6t7.5 -2h3q5 -1 9.5 1t6.5 5l3 2l237 252l227 -256q7 -5 14.5 -5.5t11.5 2.5l4 2l191 126q5 3 9 3
t6 -2l1 -1q3 -2 3 -6.5v-7.5l-1 -4l-89 -551q-2 -6 -6 -9.5t-7 -4.5h-3h-717q-6 0 -9.5 2.5t-4.5 5.5l-1 2l-22 153q0 4 2.5 6.5t4.5 2.5h3h437q15 0 24.5 5.5t10.5 11.5l2 5q0 13 -9.5 19.5t-18.5 6.5l-9 1h-443q-27 -3 -39.5 -18.5t-13.5 -28.5t0 -14l25 -160
q4 -41 45 -48l5 -1h729q15 0 26.5 4.5t17.5 11t10 13.5t5 11t1 5l92 565q2 21 -3 37t-11 21zM513 849q25 0 43 -17.5t18 -42.5t-18 -43t-43 -18t-42.5 18t-17.5 43t17.5 42.5t42.5 17.5z" />
    <glyph glyph-name="sou1" unicode="&#xe506;" 
d="M873 77v0v0v0q10 -12 10 -26q0 -15 -11 -27q-11 -11 -27 -11v0q-7 0 -13 2q-9 3 -16 11v-1l-204 206q-74 -52 -165 -52q-9 0 -19 1q-18 1 -35 6q-56 3 -117 51q-41 24 -77 87q-29 49 -35 109l-1 -1q-2 16 -2 32q0 4 0 3q0 25 5 50q10 67 52 122q10 20 40 44.5t66 40.5
l-10 -3q10 7 41 18q43 16 92 16v0q20 0 38 -3q49 -6 94 -29q73 -39 113 -109l-2 7q11 -12 26 -54q20 -56 18 -113q-4 -95 -66 -171l206 -206h-1v0zM691 455v13q0 46 -18 88q-19 53 -61 91q-8 7 0 -1q-5 5 -10 9q-47 40 -108 52q-15 3 0 1q-24 3 -45 3q-15 0 -30 -2
q-2 0 -6 -1h-5q-66 -11 -116 -53q-19 -12 -39.5 -41t-32.5 -64q-1 3 -3 -3q-10 -24 -12 -69q-3 -62 23 -115q31 -69 97 -106q0 -3 12 -9.5t34 -13t44 -9.5q1 -2 11.5 -2.5t28 0t33.5 3.5q46 8 84 31q7 2 27 18.5t37 37.5l-1 -4q12 11 33 53q2 3 3 7l-14 -26q4 7 8 15v0
q25 48 26 104v-7z" />
  </font>
</defs>
</svg>
